<svg width="19" height="19" viewBox="0 0 19 19" fill="none" xmlns="http://www.w3.org/2000/svg">
<path d="M10.0265 2.14622L15.2765 4.11497C15.5625 4.22217 15.8089 4.41411 15.9829 4.66513C16.1568 4.91616 16.25 5.21431 16.25 5.51972V9.54197C16.25 10.7955 15.901 12.0243 15.2419 13.0907C14.5829 14.1571 13.64 15.0188 12.5187 15.5795L10.0032 16.8372C9.847 16.9154 9.6747 16.9561 9.5 16.9561C9.3253 16.9561 9.153 16.9154 8.99675 16.8372L6.48125 15.5795C5.36003 15.0188 4.41708 14.1571 3.75805 13.0907C3.09903 12.0243 2.74997 10.7955 2.75 9.54197V5.51972C2.74996 5.21431 2.84315 4.91616 3.01711 4.66513C3.19108 4.41411 3.43752 4.22217 3.7235 4.11497L8.9735 2.14622C9.31297 2.01897 9.68703 2.01897 10.0265 2.14622ZM9.5 3.55097L4.25 5.51972V9.54197C4.25017 10.5169 4.52179 11.4725 5.03444 12.3017C5.54708 13.1309 6.28049 13.801 7.1525 14.237L9.5 15.4122L11.8475 14.2385C12.7197 13.8024 13.4533 13.1321 13.966 12.3026C14.4786 11.473 14.7501 10.5171 14.75 9.54197V5.51972L9.5 3.55097Z" fill="#7ABF4C"/>
<path fill-rule="evenodd" clip-rule="evenodd" d="M13.0369 5.65634C13.5028 5.95285 13.6402 6.57094 13.3437 7.03688L9.84366 12.5369C9.68082 12.7928 9.41063 12.9609 9.10912 12.994C8.80761 13.0271 8.50737 12.9216 8.29289 12.7071L6.29289 10.7071C5.90237 10.3166 5.90237 9.68342 6.29289 9.2929C6.68342 8.90237 7.31658 8.90237 7.70711 9.2929L8.82562 10.4114L11.6563 5.96313C11.9528 5.49719 12.5709 5.35983 13.0369 5.65634Z" fill="#7ABF4C"/>
</svg>
