<svg width="24" height="24" viewBox="0 0 24 24" fill="none" xmlns="http://www.w3.org/2000/svg">
<circle cx="12" cy="12" r="12" fill="black"/>
<g clip-path="url(#clip0_421_2522)">
<path fill-rule="evenodd" clip-rule="evenodd" d="M15.0232 11.8847C15.0098 10.4839 16.1677 9.80883 16.2199 9.77684C15.5697 8.82364 14.5553 8.69316 14.1941 8.6779C13.3317 8.59131 12.5111 9.1863 12.0732 9.1863C11.6366 9.1863 10.9605 8.69109 10.2459 8.70517C9.30489 8.71826 8.43809 9.25145 7.95361 10.0931C6.97729 11.7884 7.70405 14.299 8.65616 15.6742C9.12085 16.3458 9.67628 17.1034 10.4046 17.076C11.1072 17.0485 11.3717 16.6229 12.219 16.6229C13.067 16.6229 13.3051 17.076 14.0482 17.062C14.8021 17.0485 15.2815 16.3761 15.7433 15.7018C16.2772 14.9207 16.4971 14.1647 16.5099 14.1254C16.4936 14.1195 15.0384 13.5608 15.0232 11.8847L15.0232 11.8847Z" fill="white"/>
<path fill-rule="evenodd" clip-rule="evenodd" d="M13.6297 7.76921C14.0167 7.30009 14.2764 6.64911 14.2053 6C13.6482 6.02213 12.9727 6.37187 12.5736 6.83953C12.2149 7.25453 11.901 7.91721 11.9861 8.55273C12.6076 8.60106 13.2424 8.23743 13.6297 7.76921Z" fill="white"/>
</g>
<defs>
<clipPath id="clip0_421_2522">
<rect width="11.0769" height="11.0769" fill="white" transform="translate(6.46155 6)"/>
</clipPath>
</defs>
</svg>
