<svg width="24" height="24" viewBox="0 0 24 24" fill="none" xmlns="http://www.w3.org/2000/svg">
<circle cx="12" cy="12" r="12" fill="black"/>
<g clip-path="url(#clip0_421_2699)">
<path d="M11.0146 12.7862L11.0092 15.5108C11.0092 18.1008 11.0038 18.2462 10.9769 18.2462C10.88 18.2462 10.0615 18.3 9.78692 18.3269C9.60923 18.3431 9.24846 18.3808 8.99 18.4131C8.72615 18.4454 8.51077 18.4669 8.50538 18.4615C8.50538 18.4562 8.5 15.5485 8.5 11.9946V5.53846L11.0146 12.7862ZM15.4946 5.54384H13.0015L12.9962 8.40308V11.2725L15.4892 18.4562C15.5 18.4508 15.5 15.5377 15.5 11.9892L15.4946 5.54384Z" fill="#AD080F"/>
<path d="M15.4892 18.4562H15.4677C15.4246 18.4562 15.3385 18.4508 15.2362 18.44C14.66 18.37 13.9008 18.3 13.2869 18.2731C13.0877 18.2623 12.9208 18.2515 12.9154 18.2515C12.9154 18.2515 12.7592 17.7992 12.4631 16.9538C12.1777 16.13 11.7577 14.9238 11.2138 13.3569L11.0146 12.7862L8.5 5.53846H11.0038L11.1115 5.84538L11.5854 7.20769L15.4892 18.4562Z" fill="#DF0D12"/>
</g>
<defs>
<clipPath id="clip0_421_2699">
<rect width="12.9231" height="12.9231" fill="white" transform="translate(5.53845 5.53846)"/>
</clipPath>
</defs>
</svg>
