<svg width="25" height="24" viewBox="0 0 25 24" fill="none" xmlns="http://www.w3.org/2000/svg">
<circle cx="12.5" cy="12" r="12" fill="#E3E8F3"/>
<g clip-path="url(#clip0_421_2861)">
<path d="M7.40778 10.0946C7.40778 9.75969 7.23222 9.63877 6.90757 9.63877H6.70459L6.0285 11.918L6.25827 11.9315C7.0699 11.9449 7.40778 10.7651 7.40778 10.0946ZM16.8485 11.2344C16.8485 11.0466 16.7133 10.926 16.5374 10.926C16.1182 10.926 15.9694 11.6097 15.8881 11.918H16.6997C16.7536 11.6903 16.8485 11.4622 16.8485 11.2344ZM8.58472 10.3896C8.58472 11.8646 7.51621 12.2667 6.24472 12.2667H5.93362L5.50086 13.594H4.3649L5.51441 9.65221V9.63877H5.01389L5.10876 9.30383L5.12231 9.2904H7.20511C7.96253 9.2904 8.58472 9.54504 8.58472 10.3896ZM14.928 10.7114L13.1695 13.2587L14.2109 13.2722L14.1028 13.594H11.5873L13.3454 11.0601H12.3176L12.4257 10.7114H14.928ZM17.8763 11.6768C17.8763 11.8777 17.8357 12.079 17.7814 12.2667H15.78C15.6986 12.5079 15.6041 12.8029 15.6041 13.0578C15.6041 13.2722 15.7258 13.3793 15.9287 13.3793C16.2937 13.3793 16.4293 12.8432 16.5238 12.5751H17.6869C17.4707 13.299 16.6861 13.7415 15.9558 13.7415C15.1849 13.7415 14.5898 13.3528 14.5898 12.5348C14.5898 11.4622 15.4553 10.5774 16.5509 10.5774C17.2406 10.5774 17.8763 10.8992 17.8763 11.6768ZM21.7308 11.8777C21.7308 7.89596 15.6447 6.46153 12.4799 6.46153C9.38247 6.46153 3.26929 7.88253 3.26929 11.8377C3.26929 14.0498 5.31143 15.5514 7.17801 16.3157H7.19156L8.96326 10.269C9.34213 8.98202 9.89655 7.64132 11.4788 7.64132C12.0336 7.64132 12.7639 7.88253 12.7639 8.55303C12.7639 8.92828 12.4799 9.27696 12.0875 9.27696C11.7631 9.27696 11.4924 9.02232 11.4924 8.7005C11.4924 8.31151 11.7899 8.12405 12.1417 8.11061C12.0336 7.89596 11.7764 7.81566 11.5466 7.81566C10.4645 7.81566 10.2212 9.98746 10.0047 10.7114H11.9658L11.1274 13.594H9.99111L10.735 11.0735H9.89655L8.7606 14.8944C8.58472 15.4977 8.35462 16.0742 8.24651 16.6909C9.59901 17.1065 11.0325 17.3077 12.4528 17.3077C15.6041 17.3077 21.7308 15.9401 21.7308 11.8777ZM21.2035 11.2075C21.2035 11.5428 20.9331 11.8243 20.5949 11.8243C20.3109 11.8243 20.0537 11.5694 20.0537 11.2878C20.0537 11.2344 20.0672 11.1672 20.0808 11.1135H20.0537C19.4721 11.5428 19.2017 13.071 19.0394 13.594H17.9034L18.6473 11.0735L18.201 11.0601L18.3226 10.7114H19.8646L19.7158 11.221C19.9185 10.9126 20.2431 10.658 20.6355 10.658C20.9466 10.658 21.2035 10.8992 21.2035 11.2075Z" fill="#007CC2"/>
</g>
<defs>
<clipPath id="clip0_421_2861">
<rect width="18.4615" height="10.8462" fill="white" transform="translate(3.26929 6.46153)"/>
</clipPath>
</defs>
</svg>
