<svg width="24" height="24" viewBox="0 0 24 24" fill="none" xmlns="http://www.w3.org/2000/svg">
<circle cx="12" cy="12" r="12" fill="#D53933"/>
<path d="M13.152 7.76677L12 9.17354L10.848 7.76677C9.48997 7.82501 8.15707 8.15259 6.92676 8.73046C7.30563 9.23852 7.82572 9.62378 8.42214 9.83815C8.4443 9.26954 8.93537 9.11815 9.45599 9.06277C9.77988 9.03095 10.1054 9.01862 10.4308 9.02585L12 17.7692L13.5692 9.02954C13.8946 9.02231 14.2201 9.03464 14.544 9.06646C15.0646 9.12185 15.5557 9.27323 15.5778 9.84185C16.1743 9.62747 16.6943 9.24222 17.0732 8.73415C15.8432 8.155 14.5103 7.82617 13.152 7.76677Z" fill="white"/>
<path d="M11.9999 6.69231C10.0971 6.71542 8.21381 7.07933 6.43933 7.76677C6.52057 7.99382 6.62319 8.21265 6.74579 8.42031C8.40379 7.70542 10.1946 7.35053 11.9999 7.37908C13.8053 7.35053 15.5961 7.70542 17.2541 8.42031C17.3767 8.21265 17.4793 7.99382 17.5606 7.76677C15.7861 7.07933 13.9028 6.71542 11.9999 6.69231Z" fill="white"/>
</svg>
