<svg width="24" height="24" viewBox="0 0 24 24" fill="none" xmlns="http://www.w3.org/2000/svg">
<circle cx="12" cy="12" r="12" fill="#F5F3EA"/>
<g clip-path="url(#clip0_421_2233)">
<path d="M14.4492 14.6015C13.448 15.3456 11.9967 15.7427 10.7473 15.7427C8.9953 15.7427 7.41809 15.0892 6.22486 14.0025C6.13111 13.9171 6.21511 13.8006 6.32761 13.8671C7.61533 14.6226 9.20755 15.0771 10.8523 15.0771C11.9615 15.0771 13.1817 14.8457 14.3037 14.3655C14.4732 14.2929 14.6149 14.4774 14.4492 14.6015Z" fill="#FF9900"/>
<path d="M14.8654 14.1212C14.7379 13.9564 14.0195 14.0433 13.697 14.0819C13.5987 14.094 13.5837 14.0078 13.6722 13.9458C14.2445 13.5397 15.1834 13.6569 15.2929 13.793C15.4024 13.9299 15.2644 14.879 14.7267 15.332C14.6442 15.4016 14.5654 15.3645 14.6022 15.2723C14.7229 14.9682 14.9937 14.2869 14.8654 14.1212Z" fill="#FF9900"/>
<path d="M13.7195 11.0788V10.6841C13.7195 10.6243 13.7645 10.5842 13.8185 10.5842H15.5712C15.6275 10.5842 15.6725 10.6251 15.6725 10.6841V11.0221C15.6717 11.0788 15.6245 11.1529 15.5405 11.2702L14.6322 12.5777C14.9697 12.5694 15.326 12.6201 15.632 12.794C15.701 12.8333 15.7197 12.8908 15.725 12.9475V13.3688C15.725 13.4262 15.662 13.4935 15.596 13.4588C15.0567 13.1737 14.3405 13.1426 13.7442 13.4618C13.6835 13.4951 13.6198 13.4285 13.6198 13.371V12.971C13.6198 12.9067 13.6205 12.797 13.6842 12.6995L14.7365 11.1779H13.8207C13.7645 11.1779 13.7195 11.1378 13.7195 11.0788Z" fill="#221F1F"/>
<path d="M7.32587 13.5419H6.79264C6.74164 13.5382 6.70114 13.4996 6.69739 13.4504V10.6909C6.69739 10.6357 6.74314 10.5918 6.80014 10.5918H7.29737C7.34912 10.5941 7.39037 10.6341 7.39412 10.6841V11.0448H7.40387C7.53362 10.6962 7.77736 10.5336 8.10586 10.5336C8.4396 10.5336 8.6481 10.6962 8.79809 11.0448C8.92709 10.6962 9.22034 10.5336 9.53458 10.5336C9.75807 10.5336 10.0026 10.6266 10.1518 10.8353C10.3206 11.0675 10.2861 11.4048 10.2861 11.7005L10.2853 13.4421C10.2853 13.4973 10.2396 13.5419 10.1826 13.5419H9.65008C9.59683 13.5382 9.55408 13.4951 9.55408 13.4421V11.9795C9.55408 11.8631 9.56458 11.5727 9.53908 11.4622C9.49933 11.277 9.38008 11.2248 9.22559 11.2248C9.09659 11.2248 8.96159 11.3118 8.90684 11.4509C8.85209 11.5901 8.85734 11.823 8.85734 11.9795V13.4421C8.85734 13.4973 8.81159 13.5419 8.7546 13.5419H8.22211C8.16811 13.5382 8.12611 13.4951 8.12611 13.4421L8.12536 11.9795C8.12536 11.6717 8.17561 11.2187 7.79686 11.2187C7.41362 11.2187 7.42862 11.6604 7.42862 11.9795V13.4421C7.42862 13.4973 7.38287 13.5419 7.32587 13.5419Z" fill="#221F1F"/>
<path d="M17.1814 10.5336C17.9727 10.5336 18.4009 11.2187 18.4009 12.0899C18.4009 12.9317 17.9277 13.5994 17.1814 13.5994C16.4044 13.5994 15.9814 12.9143 15.9814 12.0604C15.9814 11.2013 16.4097 10.5336 17.1814 10.5336ZM17.1859 11.097C16.7929 11.097 16.7682 11.6369 16.7682 11.9735C16.7682 12.3108 16.7629 13.0307 17.1814 13.0307C17.5947 13.0307 17.6142 12.4499 17.6142 12.096C17.6142 11.8631 17.6044 11.5848 17.5347 11.3639C17.4747 11.1718 17.3554 11.097 17.1859 11.097Z" fill="#221F1F"/>
<path d="M19.4268 13.5419H18.8958C18.8426 13.5382 18.7998 13.4951 18.7998 13.4421L18.7991 10.6818C18.8036 10.6311 18.8478 10.5918 18.9018 10.5918H19.3961C19.4426 10.5941 19.4808 10.6258 19.4913 10.6689V11.0909H19.5011C19.6503 10.7136 19.8595 10.5336 20.2278 10.5336C20.467 10.5336 20.7003 10.6205 20.8503 10.8588C20.9898 11.0796 20.9898 11.4509 20.9898 11.7179V13.455C20.9838 13.5034 20.9395 13.5419 20.887 13.5419H20.3523C20.3035 13.5382 20.263 13.5019 20.2578 13.455V11.9561C20.2578 11.6543 20.2923 11.2127 19.924 11.2127C19.7943 11.2127 19.6751 11.3004 19.6158 11.4335C19.5408 11.6022 19.5311 11.77 19.5311 11.9561V13.4421C19.5303 13.4973 19.4838 13.5419 19.4268 13.5419Z" fill="#221F1F"/>
<path d="M12.3222 12.2238V12.1073C11.9367 12.1073 11.5295 12.1905 11.5295 12.6488C11.5295 12.881 11.6487 13.0383 11.8535 13.0383C12.0035 13.0383 12.1377 12.9453 12.2224 12.794C12.3274 12.608 12.3222 12.4333 12.3222 12.2238ZM12.8599 13.5344C12.8247 13.5662 12.7737 13.5684 12.7339 13.5472C12.5569 13.399 12.5254 13.3302 12.4279 13.1888C12.1354 13.4898 11.9285 13.5798 11.549 13.5798C11.1005 13.5798 10.751 13.3007 10.751 12.7418C10.751 12.3055 10.9857 12.0083 11.3195 11.8631C11.609 11.7345 12.0132 11.7118 12.3222 11.6763V11.6067C12.3222 11.4789 12.3319 11.3276 12.2577 11.2172C12.1924 11.1182 12.0679 11.0773 11.9585 11.0773C11.7552 11.0773 11.5737 11.1824 11.5295 11.4002C11.5205 11.4486 11.4852 11.4963 11.4372 11.4985L10.9197 11.4426C10.8762 11.4328 10.8282 11.3972 10.8402 11.3299C10.9595 10.6977 11.5257 10.5071 12.0327 10.5071C12.2922 10.5071 12.6312 10.5767 12.8359 10.7748C13.0954 11.0191 13.0707 11.345 13.0707 11.6997V12.5376C13.0707 12.7895 13.1742 12.8999 13.2717 13.036C13.3062 13.0844 13.3137 13.1426 13.2702 13.1789C13.1614 13.2705 12.9679 13.4406 12.8614 13.5359L12.8599 13.5344" fill="#221F1F"/>
<path d="M5.33159 12.2238V12.1073C4.9461 12.1073 4.53886 12.1905 4.53886 12.6488C4.53886 12.881 4.65811 13.0383 4.86285 13.0383C5.01285 13.0383 5.1471 12.9453 5.23185 12.794C5.33684 12.608 5.33159 12.4333 5.33159 12.2238ZM5.86933 13.5344C5.83408 13.5662 5.78308 13.5684 5.74333 13.5472C5.56634 13.399 5.53484 13.3302 5.43734 13.1888C5.14485 13.4898 4.93785 13.5798 4.55836 13.5798C4.10987 13.5798 3.76038 13.3007 3.76038 12.7418C3.76038 12.3055 3.99512 12.0083 4.32886 11.8631C4.61836 11.7345 5.0226 11.7118 5.33159 11.6763V11.6067C5.33159 11.4789 5.34134 11.3276 5.26709 11.2172C5.20185 11.1182 5.07735 11.0773 4.96785 11.0773C4.76461 11.0773 4.58311 11.1824 4.53886 11.4002C4.52986 11.4486 4.49461 11.4963 4.44661 11.4985L3.92912 11.4426C3.88562 11.4328 3.83762 11.3972 3.84962 11.3299C3.96887 10.6977 4.53511 10.5071 5.0421 10.5071C5.30159 10.5071 5.64059 10.5767 5.84533 10.7748C6.10483 11.0191 6.08008 11.345 6.08008 11.6997V12.5376C6.08008 12.7895 6.18358 12.8999 6.28107 13.036C6.31557 13.0844 6.32307 13.1426 6.27957 13.1789C6.17083 13.2705 5.97733 13.4406 5.87083 13.5359L5.86933 13.5344" fill="#221F1F"/>
</g>
<defs>
<clipPath id="clip0_421_2233">
<rect width="17.25" height="5.25" fill="white" transform="translate(3.75 10.5)"/>
</clipPath>
</defs>
</svg>
