<svg width="25" height="24" viewBox="0 0 25 24" fill="none" xmlns="http://www.w3.org/2000/svg">
<circle cx="12.5" cy="12" r="12" fill="#F5EAEA"/>
<path d="M18.4322 10.5581H19.4521V10.8752C19.5616 10.7884 19.9151 10.4803 20.5682 10.4803C21.3366 10.4803 21.9471 10.9966 21.9471 11.8072V13.9113H20.8698V12.068C20.8698 11.6161 20.6276 11.348 20.1893 11.348C19.7648 11.348 19.5093 11.6008 19.5093 12.068V13.9113H18.4322V10.5581ZM13.8984 12.2353C13.8984 11.2676 14.75 10.4806 15.8638 10.4806C16.9789 10.4806 17.8302 11.2676 17.8302 12.2353C17.8302 13.2021 16.9789 13.9878 15.8638 13.9878C14.7499 13.988 13.8984 13.2021 13.8984 12.2353ZM14.9618 12.235C14.9618 12.6985 15.3421 13.0796 15.8713 13.0796C16.4008 13.0796 16.7811 12.6985 16.7811 12.235C16.7811 11.7712 16.4008 11.3907 15.8713 11.3907C15.3421 11.3907 14.9618 11.7712 14.9618 12.235ZM7.54708 13.9113H8.81017L9.9456 12.5834L10.6535 13.2359L9.03359 15.0817H10.3011L11.3384 13.8584L13.2908 15.6667H14.821L12.0149 13.0988L14.2248 10.5581H12.9566L11.3234 12.4664L10.6166 11.8199L12.4334 9.73782H11.1686L9.92775 11.1906L9.25392 10.5581H7.74483L9.26484 11.9546L7.54708 13.9113ZM3.98315 9.33333V13.9113H7.29635V13.057H5.11033V11.9632H7.19821V11.1352H5.11033V10.1862H7.29635V9.33333H3.98315Z" fill="#ED1B2D"/>
</svg>
