<svg width="14" height="14" viewBox="0 0 14 14" fill="none" xmlns="http://www.w3.org/2000/svg">
<path fill-rule="evenodd" clip-rule="evenodd" d="M4.0835 4.08333V5.83333H3.50016C2.87696 5.83333 2.3335 6.28622 2.3335 6.90278V11.7639C2.3335 12.3805 2.87696 12.8333 3.50016 12.8333H10.5002C11.1234 12.8333 11.6668 12.3805 11.6668 11.7639V6.90278C11.6668 6.28622 11.1234 5.83333 10.5002 5.83333H9.91683V4.08333C9.91683 2.4725 8.61099 1.16667 7.00016 1.16667C5.38933 1.16667 4.0835 2.4725 4.0835 4.08333ZM8.75016 4.08333V5.83333H5.25016V4.08333C5.25016 3.11684 6.03366 2.33333 7.00016 2.33333C7.96666 2.33333 8.75016 3.11684 8.75016 4.08333ZM7.00016 10.5C7.64449 10.5 8.16683 9.97767 8.16683 9.33333C8.16683 8.689 7.64449 8.16667 7.00016 8.16667C6.35583 8.16667 5.8335 8.689 5.8335 9.33333C5.8335 9.97767 6.35583 10.5 7.00016 10.5Z" fill="white"/>
</svg>
