<svg width="24" height="24" viewBox="0 0 24 24" fill="none" xmlns="http://www.w3.org/2000/svg">
<circle cx="12" cy="12" r="12" fill="#FF9900"/>
<path d="M9.89014 5.67033H10.9451V8.10488H9.89014V5.67033ZM12 5.67033H13.055V8.10488H12V5.67033ZM9.89014 15.8951H10.9451V18.3297H9.89014V15.8951ZM12 15.8951H13.055V18.3297H12V15.8951Z" fill="white"/>
<path d="M8.30774 7.25275H11.8318C12.5294 7.25275 13.0495 7.28387 13.3923 7.34637C13.7349 7.40914 14.0416 7.53969 14.3125 7.73828C14.5831 7.93688 14.8086 8.20141 14.989 8.53187C15.1694 8.86207 15.2593 9.23209 15.2593 9.64246C15.2593 10.0871 15.1483 10.4951 14.9257 10.8665C14.7031 11.2381 14.4014 11.5166 14.0208 11.702C14.558 11.8705 14.9708 12.1577 15.2596 12.5633C15.5481 12.9692 15.6924 13.4466 15.6924 13.9946C15.6924 14.4264 15.5993 14.8465 15.4128 15.2545C15.2263 15.6625 14.9718 15.9885 14.6493 16.2324C14.3265 16.4764 13.9288 16.6267 13.4553 16.6826C13.1589 16.7175 12.4431 16.7388 11.3085 16.7475H8.30774V7.25275ZM10.0877 8.83279V11.0284H11.2542C11.9478 11.0284 12.379 11.0176 12.547 10.996C12.8517 10.9572 13.0914 10.8438 13.266 10.656C13.4403 10.468 13.5273 10.2208 13.5273 9.91437C13.5273 9.62083 13.4524 9.38242 13.3021 9.19859C13.1515 9.0153 12.9281 8.904 12.6314 8.86523C12.455 8.8436 11.9478 8.83279 11.1099 8.83279H10.0877ZM10.0877 12.6087V15.1474H11.7353C12.3767 15.1474 12.7836 15.1279 12.9561 15.0891C13.2209 15.0372 13.4364 14.9111 13.6028 14.7102C13.7689 14.5095 13.8523 14.2407 13.8523 13.9039C13.8523 13.6191 13.7882 13.3772 13.66 13.1786C13.5318 12.98 13.3464 12.8355 13.1038 12.7445C12.8611 12.6538 12.3347 12.6087 11.5251 12.6087H10.0877Z" fill="white"/>
</svg>
