<svg width="83" height="41" viewBox="0 0 83 41" fill="none" xmlns="http://www.w3.org/2000/svg">
<path d="M17.5282 10.2173H15.9345C15.889 9.95597 15.8052 9.72443 15.6831 9.52273C15.5609 9.31818 15.4089 9.14489 15.2271 9.00284C15.0453 8.8608 14.8379 8.75426 14.6049 8.68324C14.3748 8.60938 14.1262 8.57244 13.8592 8.57244C13.3848 8.57244 12.9643 8.69176 12.5978 8.9304C12.2314 9.16619 11.9444 9.51278 11.737 9.97017C11.5297 10.4247 11.426 10.9801 11.426 11.6364C11.426 12.304 11.5297 12.8665 11.737 13.3239C11.9473 13.7784 12.2342 14.1222 12.5978 14.3551C12.9643 14.5852 13.3833 14.7003 13.8549 14.7003C14.1163 14.7003 14.3606 14.6662 14.5879 14.598C14.818 14.527 15.024 14.4233 15.2058 14.2869C15.3904 14.1506 15.5453 13.983 15.6703 13.7841C15.7981 13.5852 15.8862 13.358 15.9345 13.1023L17.5282 13.1108C17.4686 13.5256 17.3393 13.9148 17.1404 14.2784C16.9444 14.642 16.6873 14.9631 16.3691 15.2415C16.051 15.517 15.6788 15.733 15.2527 15.8892C14.8265 16.0426 14.3535 16.1193 13.8336 16.1193C13.0666 16.1193 12.3819 15.9418 11.7797 15.5866C11.1774 15.2315 10.7029 14.7188 10.3564 14.0483C10.0098 13.3778 9.83647 12.5739 9.83647 11.6364C9.83647 10.696 10.0112 9.89205 10.3606 9.22443C10.71 8.55398 11.1859 8.04119 11.7882 7.68608C12.3904 7.33097 13.0723 7.15341 13.8336 7.15341C14.3194 7.15341 14.7711 7.22159 15.1887 7.35795C15.6064 7.49432 15.9785 7.6946 16.3052 7.95881C16.6319 8.22017 16.9004 8.54119 17.1106 8.92188C17.3237 9.29972 17.4629 9.73153 17.5282 10.2173ZM18.9078 16V9.45455H20.4036V10.5455H20.4718C20.5911 10.1676 20.7956 9.87642 21.0854 9.67188C21.378 9.46449 21.7118 9.3608 22.0868 9.3608C22.1721 9.3608 22.2672 9.36506 22.3723 9.37358C22.4803 9.37926 22.5698 9.3892 22.6408 9.40341V10.8224C22.5755 10.7997 22.4718 10.7798 22.3297 10.7628C22.1905 10.7429 22.0556 10.733 21.9249 10.733C21.6436 10.733 21.3908 10.794 21.1664 10.9162C20.9448 11.0355 20.7701 11.2017 20.6422 11.4148C20.5144 11.6278 20.4505 11.8736 20.4505 12.152V16H18.9078ZM26.2939 16.1278C25.6376 16.1278 25.0708 15.9915 24.5936 15.7188C24.1191 15.4432 23.7541 15.054 23.4984 14.5511C23.2427 14.0455 23.1149 13.4503 23.1149 12.7656C23.1149 12.0923 23.2427 11.5014 23.4984 10.9929C23.7569 10.4815 24.1177 10.0838 24.5808 9.79972C25.0439 9.51278 25.5879 9.36932 26.2129 9.36932C26.6163 9.36932 26.997 9.43466 27.3549 9.56534C27.7157 9.69318 28.0339 9.89205 28.3095 10.1619C28.5879 10.4318 28.8066 10.7756 28.9657 11.1932C29.1248 11.608 29.2044 12.1023 29.2044 12.6761V13.1491H23.8393V12.1094H27.7257C27.7228 11.8139 27.6589 11.5511 27.5339 11.321C27.4089 11.0881 27.2342 10.9048 27.0098 10.7713C26.7882 10.6378 26.5297 10.571 26.2342 10.571C25.9189 10.571 25.6419 10.6477 25.4032 10.8011C25.1646 10.9517 24.9785 11.1506 24.845 11.3977C24.7143 11.642 24.6475 11.9105 24.6447 12.2031V13.1108C24.6447 13.4915 24.7143 13.8182 24.8535 14.0909C24.9927 14.3608 25.1873 14.5682 25.4373 14.7131C25.6873 14.8551 25.9799 14.9261 26.3152 14.9261C26.5396 14.9261 26.7427 14.8949 26.9245 14.8324C27.1064 14.767 27.264 14.6719 27.3975 14.5469C27.5311 14.4219 27.6319 14.267 27.7001 14.0824L29.1404 14.2443C29.0495 14.625 28.8762 14.9574 28.6206 15.2415C28.3677 15.5227 28.0439 15.7415 27.649 15.8977C27.2541 16.0511 26.8024 16.1278 26.2939 16.1278ZM32.9384 16.1151C32.4242 16.1151 31.964 15.983 31.5577 15.7188C31.1515 15.4545 30.8304 15.071 30.5946 14.5682C30.3588 14.0653 30.2409 13.4545 30.2409 12.7358C30.2409 12.0085 30.3603 11.3949 30.5989 10.8949C30.8404 10.392 31.1657 10.0128 31.5748 9.7571C31.9838 9.49858 32.4398 9.36932 32.9426 9.36932C33.3262 9.36932 33.6415 9.43466 33.8887 9.56534C34.1358 9.69318 34.3319 9.84801 34.4767 10.0298C34.6216 10.2088 34.7338 10.3778 34.8134 10.5369H34.8773V7.27273H36.4242V16H34.9071V14.9688H34.8134C34.7338 15.1278 34.6188 15.2969 34.4682 15.4759C34.3176 15.652 34.1188 15.8026 33.8716 15.9276C33.6245 16.0526 33.3134 16.1151 32.9384 16.1151ZM33.3688 14.8494C33.6955 14.8494 33.9739 14.7614 34.204 14.5852C34.4341 14.4062 34.6088 14.1577 34.7282 13.8395C34.8475 13.5213 34.9071 13.1506 34.9071 12.7273C34.9071 12.304 34.8475 11.9361 34.7282 11.6236C34.6117 11.3111 34.4384 11.0682 34.2083 10.8949C33.981 10.7216 33.7012 10.6349 33.3688 10.6349C33.025 10.6349 32.7381 10.7244 32.508 10.9034C32.2779 11.0824 32.1046 11.3295 31.9881 11.6449C31.8716 11.9602 31.8134 12.321 31.8134 12.7273C31.8134 13.1364 31.8716 13.5014 31.9881 13.8224C32.1074 14.1406 32.2821 14.392 32.5123 14.5767C32.7452 14.7585 33.0307 14.8494 33.3688 14.8494ZM38.068 16V9.45455H39.6106V16H38.068ZM38.8436 8.52557C38.5993 8.52557 38.389 8.4446 38.2129 8.28267C38.0368 8.1179 37.9487 7.92045 37.9487 7.69034C37.9487 7.45739 38.0368 7.25994 38.2129 7.09801C38.389 6.93324 38.5993 6.85085 38.8436 6.85085C39.0907 6.85085 39.301 6.93324 39.4743 7.09801C39.6504 7.25994 39.7385 7.45739 39.7385 7.69034C39.7385 7.92045 39.6504 8.1179 39.4743 8.28267C39.301 8.4446 39.0907 8.52557 38.8436 8.52557ZM44.4654 9.45455V10.6477H40.7026V9.45455H44.4654ZM41.6316 7.88636H43.1742V14.0312C43.1742 14.2386 43.2054 14.3977 43.2679 14.5085C43.3333 14.6165 43.4185 14.6903 43.5236 14.7301C43.6287 14.7699 43.7452 14.7898 43.873 14.7898C43.9696 14.7898 44.0577 14.7827 44.1373 14.7685C44.2196 14.7543 44.2821 14.7415 44.3248 14.7301L44.5847 15.9361C44.5023 15.9645 44.3844 15.9957 44.231 16.0298C44.0804 16.0639 43.8958 16.0838 43.677 16.0895C43.2907 16.1009 42.9426 16.0426 42.633 15.9148C42.3233 15.7841 42.0776 15.5824 41.8958 15.3097C41.7168 15.0369 41.6287 14.696 41.6316 14.2869V7.88636ZM51.5872 16.1278C50.9338 16.1278 50.3727 15.9844 49.9039 15.6974C49.438 15.4105 49.0787 15.0142 48.8258 14.5085C48.5758 14 48.4508 13.4148 48.4508 12.7528C48.4508 12.0881 48.5787 11.5014 48.8343 10.9929C49.09 10.4815 49.4508 10.0838 49.9167 9.79972C50.3855 9.51278 50.9395 9.36932 51.5787 9.36932C52.1099 9.36932 52.5801 9.46733 52.9892 9.66335C53.4011 9.85653 53.7292 10.1307 53.9735 10.4858C54.2179 10.8381 54.3571 11.25 54.3912 11.7216H52.9167C52.8571 11.4062 52.715 11.1435 52.4906 10.9332C52.269 10.7202 51.9721 10.6136 51.6 10.6136C51.2846 10.6136 51.0076 10.6989 50.769 10.8693C50.5304 11.0369 50.3443 11.2784 50.2108 11.5938C50.0801 11.9091 50.0147 12.2869 50.0147 12.7273C50.0147 13.1733 50.0801 13.5568 50.2108 13.8778C50.3414 14.196 50.5247 14.4418 50.7605 14.6151C50.9991 14.7855 51.2789 14.8707 51.6 14.8707C51.8272 14.8707 52.0304 14.8281 52.2093 14.7429C52.3912 14.6548 52.5431 14.5284 52.6653 14.3636C52.7875 14.1989 52.8713 13.9986 52.9167 13.7628H54.3912C54.3542 14.2259 54.2179 14.6364 53.9821 14.9943C53.7463 15.3494 53.4252 15.6278 53.019 15.8295C52.6127 16.0284 52.1355 16.1278 51.5872 16.1278ZM57.5414 16.1321C57.1266 16.1321 56.753 16.0582 56.4206 15.9105C56.0911 15.7599 55.8297 15.5384 55.6365 15.2457C55.4462 14.9531 55.351 14.5923 55.351 14.1634C55.351 13.794 55.4192 13.4886 55.5556 13.2472C55.6919 13.0057 55.878 12.8125 56.1138 12.6676C56.3496 12.5227 56.6152 12.4134 56.9107 12.3395C57.209 12.2628 57.5172 12.2074 57.8354 12.1733C58.2189 12.1335 58.53 12.098 58.7686 12.0668C59.0073 12.0327 59.1806 11.9815 59.2885 11.9134C59.3993 11.8423 59.4547 11.733 59.4547 11.5852V11.5597C59.4547 11.2386 59.3596 10.9901 59.1692 10.8139C58.9789 10.6378 58.7047 10.5497 58.3468 10.5497C57.9689 10.5497 57.6692 10.6321 57.4476 10.7969C57.2289 10.9616 57.0811 11.1562 57.0044 11.3807L55.5641 11.1761C55.6777 10.7784 55.8652 10.446 56.1266 10.179C56.388 9.90909 56.7076 9.70739 57.0854 9.57386C57.4632 9.4375 57.8809 9.36932 58.3382 9.36932C58.6536 9.36932 58.9675 9.40625 59.28 9.48011C59.5925 9.55398 59.878 9.67614 60.1365 9.84659C60.3951 10.0142 60.6025 10.2429 60.7587 10.5327C60.9178 10.8224 60.9973 11.1847 60.9973 11.6193V16H59.5144V15.1009H59.4632C59.3695 15.2827 59.2374 15.4531 59.0669 15.6122C58.8993 15.7685 58.6877 15.8949 58.432 15.9915C58.1792 16.0852 57.8823 16.1321 57.5414 16.1321ZM57.9419 14.9986C58.2516 14.9986 58.5201 14.9375 58.7473 14.8153C58.9746 14.6903 59.1493 14.5256 59.2715 14.321C59.3965 14.1165 59.459 13.8935 59.459 13.652V12.8807C59.4107 12.9205 59.3283 12.9574 59.2118 12.9915C59.0982 13.0256 58.9703 13.0554 58.8283 13.081C58.6863 13.1065 58.5456 13.1293 58.4064 13.1491C58.2672 13.169 58.1465 13.1861 58.0442 13.2003C57.8141 13.2315 57.6081 13.2827 57.4263 13.3537C57.2445 13.4247 57.101 13.5241 56.9959 13.652C56.8908 13.777 56.8382 13.9389 56.8382 14.1378C56.8382 14.4219 56.9419 14.6364 57.1493 14.7812C57.3567 14.9261 57.6209 14.9986 57.9419 14.9986ZM62.5485 16V9.45455H64.0442V10.5455H64.1124C64.2317 10.1676 64.4363 9.87642 64.726 9.67188C65.0186 9.46449 65.3525 9.3608 65.7275 9.3608C65.8127 9.3608 65.9078 9.36506 66.013 9.37358C66.1209 9.37926 66.2104 9.3892 66.2814 9.40341V10.8224C66.2161 10.7997 66.1124 10.7798 65.9703 10.7628C65.8311 10.7429 65.6962 10.733 65.5655 10.733C65.2843 10.733 65.0314 10.794 64.807 10.9162C64.5854 11.0355 64.4107 11.2017 64.2828 11.4148C64.155 11.6278 64.0911 11.8736 64.0911 12.152V16H62.5485ZM69.4657 16.1151C68.9515 16.1151 68.4913 15.983 68.085 15.7188C67.6788 15.4545 67.3578 15.071 67.122 14.5682C66.8862 14.0653 66.7683 13.4545 66.7683 12.7358C66.7683 12.0085 66.8876 11.3949 67.1262 10.8949C67.3677 10.392 67.693 10.0128 68.1021 9.7571C68.5112 9.49858 68.9672 9.36932 69.47 9.36932C69.8535 9.36932 70.1689 9.43466 70.416 9.56534C70.6632 9.69318 70.8592 9.84801 71.0041 10.0298C71.149 10.2088 71.2612 10.3778 71.3407 10.5369H71.4047V7.27273H72.9515V16H71.4345V14.9688H71.3407C71.2612 15.1278 71.1461 15.2969 70.9956 15.4759C70.845 15.652 70.6461 15.8026 70.399 15.9276C70.1518 16.0526 69.8407 16.1151 69.4657 16.1151ZM69.8961 14.8494C70.2228 14.8494 70.5012 14.7614 70.7314 14.5852C70.9615 14.4062 71.1362 14.1577 71.2555 13.8395C71.3748 13.5213 71.4345 13.1506 71.4345 12.7273C71.4345 12.304 71.3748 11.9361 71.2555 11.6236C71.139 11.3111 70.9657 11.0682 70.7356 10.8949C70.5083 10.7216 70.2285 10.6349 69.8961 10.6349C69.5524 10.6349 69.2654 10.7244 69.0353 10.9034C68.8052 11.0824 68.6319 11.3295 68.5154 11.6449C68.399 11.9602 68.3407 12.321 68.3407 12.7273C68.3407 13.1364 68.399 13.5014 68.5154 13.8224C68.6348 14.1406 68.8095 14.392 69.0396 14.5767C69.2725 14.7585 69.5581 14.8494 69.8961 14.8494Z" fill="#24234C"/>
<g clip-path="url(#clip0_645_561)">
<path d="M16.9074 28H1.53704C0.688155 28 0 28.6716 0 29.5V38.5C0 39.3284 0.688155 40 1.53704 40H16.9074C17.7563 40 18.4445 39.3284 18.4445 38.5V29.5C18.4445 28.6716 17.7563 28 16.9074 28Z" fill="#2A2A6C"/>
<path fill-rule="evenodd" clip-rule="evenodd" d="M11.6584 34.6075C11.6584 34.0591 11.1947 33.8205 10.8246 33.6302C10.5773 33.5029 10.3719 33.3973 10.375 33.235C10.375 33.1075 10.4979 32.9725 10.7592 32.9425C11.0698 32.9139 11.3826 32.9656 11.6661 33.0925L11.8275 32.3425C11.5543 32.2442 11.2656 32.1934 10.9744 32.1925C10.0599 32.1925 9.43737 32.665 9.43737 33.34C9.43737 33.8301 9.88942 34.0849 10.234 34.2792L10.2443 34.285C10.5902 34.48 10.7208 34.5625 10.7208 34.7125C10.7208 34.8625 10.4364 35.05 10.1752 35.05C9.84492 35.0643 9.51645 34.9945 9.22219 34.8475L9.05311 35.5975C9.38089 35.7137 9.72657 35.7745 10.0752 35.7775C11.0436 35.7775 11.6738 35.3125 11.6738 34.5925L11.6584 34.6075ZM9.16839 32.2675L8.39987 35.74H7.48534L8.25385 32.2675H9.16839ZM13.011 34.5175L13.4952 33.2125L13.8333 34.51L13.011 34.5175ZM14.8862 35.7475H14.0408L13.9102 35.23H12.7343L12.5422 35.7475H11.5739L12.9572 32.53C13.0227 32.3752 13.1776 32.2745 13.3491 32.275H14.1177L14.8862 35.7475ZM6.36331 35.74L7.85423 32.2675H6.91664L5.88682 34.63L5.49488 32.6275C5.4645 32.422 5.28488 32.2691 5.07219 32.2675H3.53516V32.3725C3.83245 32.438 4.1212 32.5361 4.3959 32.665C4.51543 32.7263 4.59603 32.8415 4.61108 32.9725L5.3796 35.74H6.36331Z" fill="white"/>
</g>
<g clip-path="url(#clip1_645_561)">
<path d="M38.426 28H23.0556C22.2067 28 21.5186 28.6716 21.5186 29.5V38.5C21.5186 39.3284 22.2067 40 23.0556 40H38.426C39.2749 40 39.963 39.3284 39.963 38.5V29.5C39.963 28.6716 39.2749 28 38.426 28Z" fill="#F2F0EC"/>
<g opacity="0.01">
<path opacity="0.01" d="M38.1726 29.2H23.3018V38.8H38.1726V29.2Z" fill="white"/>
</g>
<path d="M32.7084 30.8725H28.7812V37.1275H32.7084V30.8725Z" fill="#F26122"/>
<path d="M29.2044 34C29.2002 32.7831 29.7664 31.6311 30.7415 30.8725C29.071 29.5937 26.6742 29.7815 25.2342 31.3041C23.7943 32.8267 23.7943 35.1733 25.2342 36.6959C26.6742 38.2185 29.071 38.4063 30.7415 37.1275C29.7645 36.3704 29.1979 35.2174 29.2044 34Z" fill="#EA1D25"/>
<path fill-rule="evenodd" clip-rule="evenodd" d="M37.2047 36.31V36.4675H37.1202V36.4225L37.1663 36.31H37.2047ZM37.1038 36.3823L37.1202 36.4225V36.3475L37.1038 36.3823ZM37.0741 36.31L37.1038 36.3823L37.0741 36.445L37.028 36.3475V36.31H37.0741ZM36.9434 36.34V36.4675H36.8896V36.34H36.9434Z" fill="#F69E1E"/>
<path d="M37.3351 34C37.3311 35.5209 36.4398 36.9068 35.0381 37.5716C33.6364 38.2364 31.9691 38.0641 30.7412 37.1275C31.7228 36.3723 32.2956 35.2198 32.2956 34C32.2956 32.7802 31.7228 31.6277 30.7412 30.8725C31.9675 29.9296 33.6382 29.7537 35.0425 30.4197C36.4466 31.0857 37.3371 32.4764 37.3351 34Z" fill="#F69E1E"/>
</g>
<g clip-path="url(#clip2_645_561)">
<path d="M59.9445 28H44.5741C43.7253 28 43.0371 28.6716 43.0371 29.5V38.5C43.0371 39.3284 43.7253 40 44.5741 40H59.9445C60.7934 40 61.4816 39.3284 61.4816 38.5V29.5C61.4816 28.6716 60.7934 28 59.9445 28Z" fill="white"/>
<g opacity="0.01">
<path opacity="0.01" d="M59.6912 29.2H44.8203V38.8H59.6912V29.2Z" fill="white"/>
</g>
<path d="M54.2269 30.8725H50.2998V37.1275H54.2269V30.8725Z" fill="#7272B5"/>
<path d="M50.723 34C50.7188 32.7831 51.2849 31.6311 52.26 30.8725C50.5896 29.5937 48.1927 29.7815 46.7528 31.3041C45.3129 32.8267 45.3129 35.1733 46.7528 36.6959C48.1927 38.2185 50.5896 38.4063 52.26 37.1275C51.2832 36.3704 50.7165 35.2174 50.723 34Z" fill="#ED1C24"/>
<path fill-rule="evenodd" clip-rule="evenodd" d="M58.7233 36.31V36.4675H58.6388V36.4225L58.6849 36.31H58.7233ZM58.6223 36.3823L58.6388 36.4225V36.3475L58.6223 36.3823ZM58.5926 36.31L58.6223 36.3823L58.5926 36.445L58.5465 36.3475V36.31H58.5926ZM58.462 36.34V36.4675H58.4082V36.34H58.462Z" fill="#00A1DE"/>
<path d="M58.8537 34C58.8497 35.5209 57.9583 36.9068 56.5566 37.5716C55.1549 38.2364 53.4876 38.0641 52.2598 37.1275C53.2413 36.3723 53.8142 35.2198 53.8142 34C53.8142 32.7802 53.2413 31.6277 52.2598 30.8725C53.4861 29.9296 55.1568 29.7537 56.561 30.4197C57.9652 31.0857 58.8557 32.4764 58.8537 34Z" fill="#00A1DE"/>
</g>
<g clip-path="url(#clip3_645_561)">
<path d="M83.0001 29.5V38.5C83.0001 39.3285 82.312 40 81.4631 40H66.0927C65.9144 40.0012 65.7373 39.9707 65.5701 39.91C64.9615 39.6953 64.5559 39.1316 64.5557 38.5V29.5C64.5557 28.6716 65.2438 28 66.0927 28H81.4631C82.312 28 83.0001 28.6716 83.0001 29.5Z" fill="#F9FAFB"/>
<path d="M83.0003 34.0525V38.5C83.0003 39.3285 82.3122 40 81.4633 40H66.0929C65.9145 40.0013 65.7375 39.9708 65.5703 39.91C66.8461 39.73 68.1064 39.505 69.3284 39.25C69.6511 39.19 69.9662 39.115 70.2813 39.0475C75.3612 37.915 79.7572 36.25 82.2318 34.615C82.5085 34.4275 82.7698 34.24 83.0003 34.0525Z" fill="#EE7623"/>
<path fill-rule="evenodd" clip-rule="evenodd" d="M66.0928 31.99H66.7921C67.3275 31.9522 67.8268 32.2556 68.0282 32.7412C68.2297 33.2267 68.0874 33.7836 67.6759 34.12C67.425 34.3123 67.1106 34.4083 66.7921 34.39H66.0928V31.99ZM66.6999 34C66.9404 34.021 67.1792 33.9452 67.3608 33.79C67.531 33.6351 67.6259 33.4171 67.6221 33.19C67.6269 32.9627 67.5318 32.7444 67.3608 32.59C67.1759 32.4418 66.938 32.3716 66.6999 32.395H66.5769V34H66.6999Z" fill="#231F20"/>
<path d="M68.8289 31.99H68.3447V34.3975H68.8289V31.99Z" fill="#231F20"/>
<path d="M69.9972 32.9125C69.7129 32.8075 69.6284 32.74 69.6284 32.605C69.6284 32.47 69.7744 32.3425 69.9819 32.3425C70.137 32.3425 70.2827 32.415 70.3738 32.5375L70.6274 32.215C70.418 32.0292 70.1416 31.9321 69.8589 31.945C69.4574 31.9437 69.1225 32.2444 69.0904 32.635C69.0904 32.965 69.2441 33.1375 69.6975 33.295C69.8897 33.3625 69.9819 33.4075 70.0357 33.43C70.1223 33.4873 70.1742 33.5829 70.174 33.685C70.1624 33.8569 70.0199 33.9927 69.8435 34C69.6172 34.0034 69.4098 33.8773 69.3133 33.6775L69.0059 34C69.1861 34.2893 69.5122 34.4613 69.8589 34.45C70.0826 34.4723 70.305 34.3979 70.4676 34.2464C70.6302 34.0949 70.7167 33.8816 70.7043 33.6625C70.7043 33.25 70.5506 33.1075 69.9972 32.9125Z" fill="#231F20"/>
<path d="M70.8653 33.19C70.8611 33.5267 70.9969 33.8508 71.2416 34.0882C71.4863 34.3256 71.8191 34.4561 72.1641 34.45C72.3726 34.4485 72.5778 34.3997 72.7636 34.3075V33.7525C72.6165 33.9116 72.4068 34.0016 72.1872 34C71.9589 34.0191 71.7337 33.9378 71.5732 33.7782C71.4126 33.6186 71.3334 33.3974 71.3572 33.175C71.3531 32.9629 71.436 32.7579 71.5876 32.6058C71.7391 32.4537 71.9467 32.367 72.1641 32.365C72.3954 32.3624 72.6156 32.4616 72.7636 32.635V32.08C72.5827 31.9816 72.3789 31.9299 72.1718 31.93C71.8274 31.928 71.4962 32.0596 71.2512 32.2959C71.0062 32.5322 70.8674 32.8538 70.8653 33.19Z" fill="#231F20"/>
<path d="M76.5829 33.6025L75.922 31.99H75.3994L76.4446 34.4575H76.7059L77.7665 31.99H77.2515L76.5829 33.6025Z" fill="#231F20"/>
<path d="M77.9893 34.3975H79.3495V33.985H78.4657V33.34H79.3188V32.9275H78.4657V32.395H79.3495V31.99H77.9893V34.3975Z" fill="#231F20"/>
<path fill-rule="evenodd" clip-rule="evenodd" d="M81.256 32.695C81.2803 33.0321 81.0368 33.3315 80.695 33.385L81.4635 34.39H80.8794L80.2108 33.4225H80.157V34.39H79.6729V31.99H80.3799C80.9409 31.99 81.256 32.245 81.256 32.695ZM80.157 33.0925H80.2954C80.5951 33.0925 80.7565 32.9425 80.7565 32.7025C80.7565 32.4625 80.5951 32.3425 80.303 32.3425H80.157V33.0925Z" fill="#231F20"/>
<path d="M75.5454 33.19C75.5484 33.7094 75.2303 34.1793 74.7394 34.3802C74.2486 34.5811 73.6822 34.4732 73.3047 34.107C72.9273 33.7408 72.8134 33.1886 73.0163 32.7085C73.2193 32.2283 73.699 31.915 74.2312 31.915C74.9523 31.919 75.537 32.4863 75.5454 33.19Z" fill="#EE7623"/>
<path fill-rule="evenodd" clip-rule="evenodd" d="M81.509 32.035C81.5094 32.0613 81.4896 32.0837 81.4629 32.0875L81.5321 32.185H81.4706L81.4015 32.095V32.185H81.3477V31.9675H81.4245C81.509 31.9675 81.509 31.99 81.509 32.035ZM81.4168 32.0125V32.0875L81.4629 32.0575L81.4552 32.0125H81.4168Z" fill="#231F20"/>
<path fill-rule="evenodd" clip-rule="evenodd" d="M81.2793 32.0725C81.2792 31.9718 81.3606 31.889 81.4637 31.885C81.5668 31.889 81.6483 31.9718 81.6482 32.0725C81.6482 32.1719 81.5656 32.2525 81.4637 32.2525C81.3618 32.2525 81.2793 32.1719 81.2793 32.0725ZM81.4637 32.23C81.5025 32.2312 81.5394 32.2145 81.5636 32.185H81.5406C81.5779 32.1579 81.6028 32.1174 81.6098 32.0725C81.6098 32.0216 81.5819 31.9745 81.5368 31.9491C81.4916 31.9236 81.4359 31.9236 81.3907 31.9491C81.3455 31.9745 81.3177 32.0216 81.3177 32.0725C81.3156 32.1123 81.3299 32.1513 81.3572 32.1808C81.3847 32.2104 81.4229 32.2281 81.4637 32.23Z" fill="#231F20"/>
</g>
<defs>
<clipPath id="clip0_645_561">
<rect width="18.4445" height="12" fill="white" transform="translate(0 28)"/>
</clipPath>
<clipPath id="clip1_645_561">
<rect width="18.4445" height="12" fill="white" transform="translate(21.5186 28)"/>
</clipPath>
<clipPath id="clip2_645_561">
<rect width="18.4445" height="12" fill="white" transform="translate(43.0371 28)"/>
</clipPath>
<clipPath id="clip3_645_561">
<rect width="18.4445" height="12" fill="white" transform="translate(64.5557 28)"/>
</clipPath>
</defs>
</svg>
