<svg width="24" height="24" viewBox="0 0 24 24" fill="none" xmlns="http://www.w3.org/2000/svg">
<circle cx="12" cy="12" r="12" fill="#EAEDF5"/>
<g clip-path="url(#clip0_421_189)">
<path d="M17.8724 12.135C17.8724 11.74 17.8374 11.365 17.7774 11H12.1274V13.255H15.3624C15.2174 13.995 14.7924 14.62 14.1624 15.045V16.545H16.0924C17.2224 15.5 17.8724 13.96 17.8724 12.135Z" fill="#4285F4"/>
<path d="M12.1275 18C13.7475 18 15.1025 17.46 16.0925 16.545L14.1625 15.045C13.6225 15.405 12.9375 15.625 12.1275 15.625C10.5625 15.625 9.23746 14.57 8.76246 13.145H6.77246V14.69C7.75746 16.65 9.78246 18 12.1275 18Z" fill="#34A853"/>
<path d="M8.76244 13.145C8.63744 12.785 8.57244 12.4 8.57244 12C8.57244 11.6 8.64244 11.215 8.76244 10.855V9.31H6.77244C6.36244 10.12 6.12744 11.03 6.12744 12C6.12744 12.97 6.36244 13.88 6.77244 14.69L8.76244 13.145Z" fill="#FBBC05"/>
<path d="M12.1275 8.375C13.0125 8.375 13.8025 8.68 14.4275 9.275L16.1375 7.565C15.1025 6.595 13.7475 6 12.1275 6C9.78246 6 7.75746 7.35 6.77246 9.31L8.76246 10.855C9.23746 9.43 10.5625 8.375 12.1275 8.375Z" fill="#EA4335"/>
</g>
<defs>
<clipPath id="clip0_421_189">
<rect width="12" height="12" fill="white" transform="translate(6 6)"/>
</clipPath>
</defs>
</svg>
