<svg width="96" height="132" viewBox="0 0 96 132" fill="none" xmlns="http://www.w3.org/2000/svg">
<path d="M96 118.891L76.9633 114.514L68.4649 131.998L49.6392 92.944L47.9987 89.5387L46.3583 92.944L27.5326 131.998L19.0342 114.514L0 118.891L18.1926 81.1478L22.217 72.7969L24.1262 68.8373L47.9987 80.2016L71.8738 68.8373L73.783 72.7969L77.8074 81.1478L96 118.891Z" fill="#7ABF4C"/>
<path d="M27.5352 132L19.0367 114.514L0 118.891L24.1262 68.8373L51.6614 81.9467L27.5352 132Z" fill="#7ABF4C"/>
<path d="M68.4673 132L76.9657 114.514L95.9999 118.891L71.8737 68.8373L44.3411 81.9467L68.4673 132Z" fill="#7ABF4C"/>
<g style="mix-blend-mode:multiply">
<path d="M73.7829 72.7968C67.2716 79.535 58.12 83.7367 47.9987 83.7367C42.8816 83.7367 38.0106 82.6632 33.6044 80.7284C29.2986 78.8385 25.435 76.1297 22.217 72.7968L18.1926 81.1478C20.5364 81.4549 23.5936 80.9081 25.2717 82.0216C26.4876 82.8305 27.1659 84.6654 27.9069 86.393C28.5877 87.9808 29.3263 89.4738 30.5823 89.9956C33.1673 91.0616 37.2042 87.5415 40.0127 88.0932C42.2083 88.5251 44.1728 91.7132 46.3583 92.944L47.9987 89.5387L49.6391 92.944C51.8272 91.7157 53.7916 88.5251 55.9872 88.0932C58.7957 87.5415 62.8302 91.0616 65.4151 89.9956C68.0453 88.9121 68.3895 83.5769 70.7282 82.0216C72.4038 80.9081 75.4635 81.4549 77.8073 81.1478L73.7829 72.7968Z" fill="#D1D3D4"/>
</g>
<path d="M48.0013 81.6621C68.2545 81.6621 84.6729 65.3453 84.6729 45.2175C84.6729 25.0897 68.2545 8.77286 48.0013 8.77286C27.7481 8.77286 11.3296 25.0897 11.3296 45.2175C11.3296 65.3453 27.7481 81.6621 48.0013 81.6621Z" fill="white"/>
<path d="M48.0012 77.6501C66.0248 77.6501 80.6359 63.1296 80.6359 45.2175C80.6359 27.3054 66.0248 12.7848 48.0012 12.7848C29.9775 12.7848 15.3665 27.3054 15.3665 45.2175C15.3665 63.1296 29.9775 77.6501 48.0012 77.6501Z" fill="#7ABF4C"/>
<g style="mix-blend-mode:multiply">
<path d="M16.6201 46.7154C16.6201 28.8027 31.2305 14.2827 49.2548 14.2827C58.9942 14.2827 67.7338 18.5244 73.7126 25.2476C67.7388 17.6631 58.4416 12.7848 47.9987 12.7848C29.9744 12.7848 15.364 27.3047 15.364 45.2175C15.364 53.4511 18.4539 60.9682 23.5409 66.6878C19.205 61.1829 16.6201 54.25 16.6201 46.7154Z" fill="#D1D3D4"/>
</g>
<g style="mix-blend-mode:multiply">
<path d="M38.3622 61.0681L28.4092 51.1767C26.7236 49.5016 26.7236 46.7853 28.4092 45.1101L28.472 45.0477C30.1577 43.3725 32.8908 43.3725 34.5764 45.0477L40.7638 51.1967C41.2159 51.6461 41.9495 51.6461 42.4016 51.1967L62.9356 30.7899C64.6212 29.1147 67.3544 29.1147 69.04 30.7899L69.1028 30.8523C70.7884 32.5275 70.7884 35.2438 69.1028 36.919L44.8032 61.0681C43.0246 62.8356 40.1433 62.8356 38.3647 61.0681H38.3622Z" fill="#D1D3D4"/>
</g>
<path d="M37.6085 60.3191L27.6556 50.4278C25.97 48.7526 25.97 46.0364 27.6556 44.3612L27.7184 44.2988C29.404 42.6236 32.1372 42.6236 33.8228 44.2988L40.0101 50.4478C40.4623 50.8971 41.1958 50.8971 41.648 50.4478L62.1819 30.041C63.8675 28.3658 66.6007 28.3658 68.2863 30.041L68.3491 30.1034C70.0347 31.7786 70.0347 34.4948 68.3491 36.17L44.0496 60.3191C42.271 62.0867 39.3896 62.0867 37.611 60.3191H37.6085Z" fill="white"/>
<path d="M88.132 53.1515C88.6746 50.4428 93.5004 48.0835 93.5004 45.2175C93.5004 42.3514 88.6746 39.9922 88.132 37.281C87.5768 34.4898 91.1189 30.4779 90.0462 27.9089C89.5237 26.6532 88.019 25.9242 86.4213 25.2476C84.6854 24.5111 82.8415 23.8395 82.0226 22.6287C80.445 20.287 82.1708 15.2264 80.1737 13.2417C79.3422 12.4153 77.9781 12.2281 76.4985 12.1857C74.4184 12.1182 72.1098 12.323 70.7307 11.4067C69.9444 10.8825 69.3842 9.93377 68.8868 8.86025C67.902 6.74318 67.1635 4.14926 65.4176 3.43026C62.8326 2.36423 58.7982 5.88437 55.9871 5.33263C53.259 4.79837 50.8851 0 48.0012 0C45.1173 0 42.7433 4.79587 40.0152 5.33263C39.7087 5.39504 39.3897 5.40503 39.0581 5.37757C36.3475 5.17285 32.8909 2.47907 30.5847 3.43026C27.9546 4.51626 27.6104 9.85138 25.2717 11.4067C22.9178 12.9746 17.8258 11.2594 15.8287 13.2417C13.8315 15.2264 15.5574 20.287 13.9798 22.6287C12.4147 24.953 7.04635 25.2925 5.95609 27.9064C5.0015 30.1982 7.70954 33.631 7.91553 36.3273C7.94317 36.6593 7.93312 36.9764 7.87032 37.281C7.3277 39.9922 2.50195 42.3514 2.50195 45.2175C2.50195 48.0835 7.3277 50.4428 7.87032 53.1515C8.42549 55.9427 4.88343 59.9571 5.95609 62.5261C6.67958 64.2612 9.28965 64.9976 11.4199 65.9713C12.4976 66.4706 13.4547 67.0273 13.9798 67.8063C14.8992 69.1719 14.6957 71.4687 14.7635 73.5383C14.8138 75.0113 14.9997 76.3669 15.8287 77.1908C17.8233 79.1755 22.9153 77.4604 25.2717 79.0282C26.49 79.8371 27.1658 81.6721 27.9068 83.3997C28.5876 84.9875 29.3262 86.4804 30.5847 87.0022C33.1697 88.0682 37.2041 84.5481 40.0152 85.0998C42.7433 85.6366 45.1173 90.435 48.0012 90.435C50.8851 90.435 53.259 85.6341 55.9871 85.0998C58.7957 84.5481 62.8326 88.0682 65.4176 87.0022C68.0477 85.9162 68.3919 80.5811 70.7307 79.0282C73.0845 77.4604 78.1765 79.1755 80.1737 77.1908C82.1708 75.206 80.445 70.1455 82.0226 67.8063C83.5876 65.482 88.956 65.1399 90.0462 62.5261C91.1189 59.9571 87.5768 55.9452 88.132 53.1515ZM48.0012 80.7434C42.8815 80.7434 38.013 79.6699 33.6068 77.735C28.4897 75.4906 24.0005 72.0878 20.4735 67.8612C18.7929 65.8465 17.3334 63.647 16.1276 61.2928C13.6532 56.4644 12.2539 50.9995 12.2539 45.2175C12.2539 38.5417 14.1154 32.2904 17.351 26.9502C20.3756 21.9571 24.5959 17.7604 29.6201 14.7571C34.9935 11.5415 41.2838 9.68911 48.0012 9.68911C53.8192 9.68911 59.3157 11.0772 64.1766 13.5413C66.543 14.7396 68.7587 16.1926 70.7859 17.8603C75.0364 21.3655 78.4629 25.8293 80.7213 30.9123C82.6682 35.2912 83.7484 40.1295 83.7484 45.2175C83.7484 64.8079 67.7136 80.7434 48.0012 80.7434Z" fill="#7ABF4C"/>
</svg>
