<svg width="92" height="24" viewBox="0 0 92 24" fill="none" xmlns="http://www.w3.org/2000/svg">
<path fill-rule="evenodd" clip-rule="evenodd" d="M87.4509 5.95655V18.4754H90.8849V5.95655H87.4509ZM87.862 3.82932C88.2274 4.17164 88.6654 4.34279 89.176 4.34279C89.6865 4.34279 90.1218 4.17164 90.4819 3.82932C90.8473 3.48158 91.03 3.06591 91.03 2.58233C91.03 2.10418 90.8473 1.69395 90.4819 1.35164C90.1218 1.00389 89.6865 0.830017 89.176 0.830017C88.6654 0.830017 88.2274 1.00389 87.862 1.35164C87.5019 1.69395 87.3219 2.10418 87.3219 2.58233C87.3219 3.06591 87.5019 3.48158 87.862 3.82932ZM14.8496 18.4754V5.95655H18.1789V8.14083H18.3079C18.5336 7.36384 18.9125 6.77701 19.4445 6.38037C19.9766 5.97829 20.5892 5.77725 21.2825 5.77725C21.4544 5.77725 21.6399 5.78811 21.8387 5.80985C22.0375 5.83158 22.2122 5.86146 22.3627 5.8995V8.98031C22.2015 8.93141 21.9784 8.88794 21.6936 8.84991C21.4088 8.81187 21.1481 8.79285 20.9117 8.79285C20.4065 8.79285 19.9551 8.90424 19.5574 9.12702C19.1651 9.34436 18.8534 9.64864 18.6223 10.0399C18.3966 10.4311 18.2837 10.882 18.2837 11.3928V18.4754H14.8496ZM29.1563 18.7199C27.9041 18.7199 26.8212 18.451 25.9076 17.913C24.9994 17.3697 24.298 16.6144 23.8036 15.6473C23.3092 14.6747 23.062 13.5472 23.062 12.2649C23.062 10.9717 23.3092 9.84153 23.8036 8.87436C24.298 7.90176 24.9994 7.14649 25.9076 6.60857C26.8212 6.06522 27.9041 5.79355 29.1563 5.79355C30.4084 5.79355 31.4886 6.06522 32.3969 6.60857C33.3105 7.14649 34.0145 7.90176 34.5089 8.87436C35.0033 9.84153 35.2505 10.9717 35.2505 12.2649C35.2505 13.5472 35.0033 14.6747 34.5089 15.6473C34.0145 16.6144 33.3105 17.3697 32.3969 17.913C31.4886 18.451 30.4084 18.7199 29.1563 18.7199ZM29.1724 16.0303C29.742 16.0303 30.2176 15.8673 30.5992 15.5413C30.9808 15.2099 31.2683 14.7589 31.4618 14.1883C31.6606 13.6178 31.76 12.9685 31.76 12.2404C31.76 11.5123 31.6606 10.863 31.4618 10.2925C31.2683 9.72199 30.9808 9.271 30.5992 8.93956C30.2176 8.60811 29.742 8.44239 29.1724 8.44239C28.5973 8.44239 28.1137 8.60811 27.7214 8.93956C27.3344 9.271 27.0415 9.72199 26.8427 10.2925C26.6492 10.863 26.5525 11.5123 26.5525 12.2404C26.5525 12.9685 26.6492 13.6178 26.8427 14.1883C27.0415 14.7589 27.3344 15.2099 27.7214 15.5413C28.1137 15.8673 28.5973 16.0303 29.1724 16.0303ZM44.6418 9.72199L47.7857 9.52638C47.6352 8.37447 47.1086 7.46435 46.2057 6.79603C45.3082 6.12771 44.0775 5.79355 42.5137 5.79355C41.455 5.79355 40.5306 5.95112 39.7406 6.26626C38.956 6.58141 38.346 7.02967 37.9107 7.61106C37.4808 8.19245 37.2658 8.88522 37.2658 9.68939C37.2658 10.624 37.5587 11.3928 38.1445 11.9959C38.7357 12.599 39.6358 13.0229 40.845 13.2674L42.9893 13.6993C43.5267 13.808 43.9244 13.9656 44.1823 14.172C44.4403 14.3731 44.572 14.6312 44.5773 14.9463C44.572 15.3212 44.3839 15.6282 44.0131 15.8673C43.6476 16.101 43.1639 16.2178 42.562 16.2178C41.9494 16.2178 41.4469 16.0874 41.0546 15.8266C40.6623 15.5603 40.4151 15.1745 40.313 14.6692L36.9353 14.8485C37.1019 16.0439 37.6689 16.9893 38.6362 17.6848C39.609 18.3749 40.9149 18.7199 42.554 18.7199C43.6288 18.7199 44.5773 18.5488 45.3996 18.2064C46.2272 17.8587 46.8775 17.3751 47.3504 16.7557C47.8287 16.1363 48.0678 15.4163 48.0678 14.5959C48.0678 13.6939 47.7723 12.9658 47.1811 12.4116C46.59 11.8574 45.6925 11.4553 44.4887 11.2053L42.2477 10.7489C41.6726 10.624 41.2669 10.4582 41.0304 10.2518C40.7939 10.0453 40.6757 9.79262 40.6757 9.49378C40.6757 9.11887 40.8584 8.82002 41.2239 8.59725C41.5893 8.36904 42.0381 8.25494 42.5701 8.25494C42.9678 8.25494 43.309 8.32285 43.5939 8.45869C43.8841 8.5891 44.1179 8.76569 44.2952 8.98846C44.4725 9.2058 44.5881 9.45031 44.6418 9.72199ZM50.2303 23.17V5.95655H53.616V8.05933H53.7691C53.9196 7.72245 54.1373 7.38014 54.4221 7.03239C54.7123 6.67921 55.0885 6.3858 55.5507 6.15216C56.0182 5.91308 56.5986 5.79355 57.2919 5.79355C58.1947 5.79355 59.0277 6.03262 59.7908 6.51077C60.554 6.98349 61.1639 7.698 61.6207 8.6543C62.0775 9.60517 62.306 10.7978 62.306 12.2323C62.306 13.6287 62.0829 14.8078 61.6369 15.7695C61.1962 16.7258 60.5943 17.4512 59.8312 17.9456C59.0734 18.4347 58.2243 18.6792 57.2838 18.6792C56.6174 18.6792 56.0504 18.5678 55.5829 18.345C55.1207 18.1222 54.7419 17.8424 54.4463 17.5055C54.1507 17.1632 53.925 16.8182 53.7691 16.4704H53.6643V23.17H50.2303ZM53.5918 12.216C53.5918 12.9604 53.6939 13.6097 53.8981 14.1639C54.1023 14.7181 54.3979 15.1501 54.7848 15.4598C55.1718 15.7641 55.642 15.9162 56.1956 15.9162C56.7545 15.9162 57.2274 15.7614 57.6143 15.4516C58.0013 15.1365 58.2942 14.7018 58.493 14.1476C58.6972 13.5879 58.7993 12.9441 58.7993 12.216C58.7993 11.4933 58.6999 10.8576 58.5011 10.3088C58.3022 9.76002 58.0093 9.33077 57.6224 9.02106C57.2355 8.71135 56.7598 8.5565 56.1956 8.5565C55.6366 8.5565 55.1637 8.70592 54.7768 9.00476C54.3952 9.30361 54.1023 9.72742 53.8981 10.2762C53.6939 10.825 53.5918 11.4716 53.5918 12.216ZM66.9492 17.9375C67.8682 18.4591 68.9645 18.7199 70.2382 18.7199C71.2593 18.7199 72.1594 18.5623 72.9387 18.2472C73.7233 17.9266 74.3628 17.4811 74.8572 16.9105C75.357 16.3346 75.6875 15.6608 75.8488 14.8893L72.6727 14.6774C72.5544 14.9925 72.3825 15.2588 72.1567 15.4761C71.931 15.6934 71.6596 15.8564 71.3426 15.9651C71.0255 16.0738 70.6762 16.1281 70.2946 16.1281C69.7196 16.1281 69.2225 16.0059 68.8033 15.7614C68.3841 15.5168 68.059 15.1691 67.8279 14.7181C67.6022 14.2671 67.4893 13.7319 67.4893 13.1125V13.1044H75.9213V12.1508C75.9213 11.0858 75.7735 10.1567 75.478 9.36337C75.1824 8.56465 74.7686 7.90176 74.2365 7.3747C73.7099 6.84765 73.0918 6.45372 72.3825 6.19291C71.6784 5.92667 70.918 5.79355 70.1011 5.79355C68.8866 5.79355 67.8279 6.06522 66.925 6.60857C66.0275 7.15193 65.3316 7.90991 64.8372 8.88251C64.3427 9.85511 64.0955 10.9853 64.0955 12.273C64.0955 13.5934 64.3427 14.7371 64.8372 15.7043C65.3316 16.666 66.0356 17.4104 66.9492 17.9375ZM67.4925 10.9527C67.5132 10.5031 67.6277 10.0929 67.8359 9.72199C68.0617 9.31447 68.3734 8.99118 68.771 8.7521C69.1741 8.50759 69.6363 8.38534 70.1576 8.38534C70.6574 8.38534 71.0954 8.49673 71.4715 8.7195C71.8531 8.93684 72.1514 9.2384 72.3663 9.62418C72.5813 10.01 72.6888 10.4528 72.6888 10.9527H67.4925ZM78.1623 18.4754V5.95655H81.4916V8.14083H81.6206C81.8463 7.36384 82.2252 6.77701 82.7572 6.38037C83.2893 5.97829 83.9019 5.77725 84.5952 5.77725C84.7672 5.77725 84.9526 5.78811 85.1514 5.80985C85.3502 5.83158 85.5249 5.86146 85.6754 5.8995V8.98031C85.5142 8.93141 85.2911 8.88794 85.0063 8.84991C84.7215 8.81187 84.4608 8.79285 84.2244 8.79285C83.7192 8.79285 83.2678 8.90424 82.8701 9.12702C82.4778 9.34436 82.1661 9.64864 81.935 10.0399C81.7093 10.4311 81.5964 10.882 81.5964 11.3928V18.4754H78.1623ZM6.73001 1.80122H0.216553V9.10321C0.216553 6.85169 1.94568 5.65292 3.70706 5.65292H5.71414V4.14987L9.38165 7.45753L5.71414 10.6572L5.69801 9.10321H3.69093C1.84962 9.10321 0.216553 11.1428 0.216553 13.0812V18.493H3.70706V13.0812H6.64134C7.90963 13.0812 8.98983 12.8449 9.88194 12.3722C10.7794 11.8994 11.4646 11.2393 11.9375 10.3916C12.4105 9.544 12.6469 8.56597 12.6469 7.45753C12.6469 6.34909 12.4132 5.37105 11.9456 4.52342C11.4834 3.67035 10.8117 3.00475 9.93031 2.5266C9.04895 2.04301 7.98218 1.80122 6.73001 1.80122Z" fill="#5653FE"/>
</svg>
