<svg width="24" height="24" viewBox="0 0 24 24" fill="none" xmlns="http://www.w3.org/2000/svg">
<circle cx="12" cy="12" r="12" fill="#F5F3EA"/>
<g clip-path="url(#clip0_421_200)">
<path d="M15.2123 6.90229C16.3978 6.90229 17.3595 11.8482 17.3595 17.9564H19.0894C19.0894 11.3803 17.3442 6.05701 15.2072 6.05701C13.9861 6.05701 12.9075 7.65198 12.1951 10.1576C11.4828 7.65198 10.4042 6.05701 9.19322 6.05701C7.05626 6.05701 5.31616 11.3752 5.31616 17.9513H7.04608C7.04608 11.8432 7.99754 6.90229 9.18305 6.90229C10.3686 6.90229 11.3302 11.4708 11.3302 17.1061H13.0499C13.0499 11.4708 14.0167 6.90229 15.2022 6.90229" fill="#FFCC00"/>
</g>
<defs>
<clipPath id="clip0_421_200">
<rect width="13.875" height="12" fill="white" transform="translate(5.25 6)"/>
</clipPath>
</defs>
</svg>
