<svg width="24" height="24" viewBox="0 0 24 24" fill="none" xmlns="http://www.w3.org/2000/svg">
<circle cx="12" cy="12" r="12" fill="#EEF3FF"/>
<g clip-path="url(#clip0_421_2605)">
<path d="M12.3462 11.6538H17.5385V6.80769C17.5385 6.71589 17.502 6.62784 17.4371 6.56293C17.3722 6.49801 17.2842 6.46154 17.1923 6.46154H12.3462V11.6538Z" fill="#4CAF50"/>
<path d="M11.6539 11.6538V6.46154H6.8077C6.7159 6.46154 6.62785 6.49801 6.56293 6.56293C6.49802 6.62784 6.46155 6.71589 6.46155 6.80769V11.6538H11.6539Z" fill="#F44336"/>
<path d="M11.6539 12.3462H6.46155V17.1923C6.46155 17.2841 6.49802 17.3722 6.56293 17.4371C6.62785 17.502 6.7159 17.5385 6.8077 17.5385H11.6539V12.3462Z" fill="#2196F3"/>
<path d="M12.3462 12.3462V17.5385H17.1923C17.2842 17.5385 17.3722 17.502 17.4371 17.4371C17.502 17.3722 17.5385 17.2841 17.5385 17.1923V12.3462H12.3462Z" fill="#FFC107"/>
</g>
<defs>
<clipPath id="clip0_421_2605">
<rect width="11.0769" height="11.0769" fill="white" transform="translate(6.46155 6.46154)"/>
</clipPath>
</defs>
</svg>
