<svg width="194" height="61" viewBox="0 0 194 61" fill="none" xmlns="http://www.w3.org/2000/svg">
<g clip-path="url(#clip0_0_14)">
<path d="M36.4213 0H3.62791C3.49133 0 3.3545 0 3.21817 0.000764462C3.10292 0.00155209 2.98794 0.00277986 2.87296 0.00579138C2.6222 0.0123009 2.36929 0.0265014 2.12166 0.0692186C1.87008 0.112677 1.63597 0.183564 1.40758 0.295175C1.18305 0.404771 0.977496 0.548119 0.799358 0.719174C0.621142 0.890228 0.471795 1.0872 0.357636 1.30294C0.24133 1.52216 0.167428 1.74693 0.122465 1.9886C0.077721 2.22635 0.0628273 2.46905 0.0560695 2.70949C0.0529802 2.81985 0.0516552 2.93021 0.0509046 3.04054C0.0501081 3.17168 0.0503736 3.30273 0.0503736 3.4341V21.1135C0.0503736 21.2449 0.0501081 21.3757 0.0509046 21.5071C0.0516552 21.6174 0.0529802 21.7278 0.0560695 21.8382C0.0628273 22.0784 0.077721 22.3211 0.122465 22.5588C0.167428 22.8005 0.24133 23.0252 0.357636 23.2444C0.471795 23.4602 0.621142 23.6574 0.799358 23.8282C0.977496 23.9995 1.18305 24.1429 1.40758 24.2522C1.63597 24.3641 1.87008 24.435 2.12166 24.4784C2.36929 24.5209 2.6222 24.5353 2.87296 24.5419C2.98794 24.5444 3.10292 24.5458 3.21817 24.5463C3.3545 24.5474 3.49133 24.5474 3.62791 24.5474H36.4213C36.5577 24.5474 36.6945 24.5474 36.8308 24.5463C36.9458 24.5458 37.0608 24.5444 37.1763 24.5419C37.4265 24.5353 37.6794 24.5209 37.9276 24.4784C38.1788 24.435 38.413 24.3641 38.6414 24.2522C38.8662 24.1429 39.0711 23.9995 39.2496 23.8282C39.4276 23.6574 39.5769 23.4602 39.6913 23.2444C39.8079 23.0252 39.8817 22.8005 39.9265 22.5588C39.9713 22.3211 39.9858 22.0784 39.9926 21.8382C39.9957 21.7278 39.9973 21.6174 39.9978 21.5071C39.9988 21.3757 39.9989 21.2449 39.9989 21.1135V3.4341C39.9989 3.30273 39.9988 3.17168 39.9978 3.04054C39.9973 2.93021 39.9957 2.81985 39.9926 2.70949C39.9858 2.46905 39.9713 2.22635 39.9265 1.9886C39.8817 1.74693 39.8079 1.52216 39.6913 1.30294C39.5769 1.0872 39.4276 0.890228 39.2496 0.719174C39.0711 0.548119 38.8662 0.404771 38.6414 0.295175C38.413 0.183564 38.1788 0.112677 37.9276 0.0692186C37.6794 0.0265014 37.4265 0.0123009 37.1763 0.00579138C37.0608 0.00277986 36.9458 0.00155209 36.8308 0.000764462C36.6945 0 36.5577 0 36.4213 0Z" fill="black"/>
<path d="M36.4212 0.817841L36.8246 0.818582C36.9339 0.819323 37.0432 0.820458 37.1531 0.823331C37.3443 0.828288 37.5679 0.838226 37.7763 0.874086C37.9575 0.905406 38.1094 0.953035 38.2553 1.02429C38.3992 1.09451 38.5311 1.18652 38.6463 1.2969C38.7619 1.40803 38.8579 1.53484 38.932 1.67455C39.0058 1.81343 39.0551 1.95858 39.0876 2.13376C39.1248 2.33164 39.1351 2.54685 39.1404 2.73145C39.1433 2.83565 39.1448 2.93985 39.1453 3.04653C39.1463 3.17554 39.1463 3.30447 39.1463 3.43374V21.1132C39.1463 21.2424 39.1463 21.3711 39.1453 21.5029C39.1448 21.6071 39.1433 21.7113 39.1404 21.8157C39.1351 22 39.1248 22.2151 39.0871 22.4153C39.0551 22.5881 39.0059 22.7332 38.9316 22.8728C38.8577 23.0122 38.7619 23.1388 38.6468 23.2493C38.5309 23.3605 38.3995 23.4522 38.2538 23.5231C38.1091 23.594 37.9574 23.6416 37.778 23.6726C37.5653 23.7089 37.3324 23.7189 37.1569 23.7235C37.0465 23.7259 36.9366 23.7273 36.8241 23.7278C36.69 23.7288 36.5554 23.7288 36.4212 23.7288H3.62782C3.62603 23.7288 3.62429 23.7288 3.62248 23.7288C3.48989 23.7288 3.35702 23.7288 3.22201 23.7278C3.11193 23.7273 3.00209 23.7259 2.8959 23.7236C2.71643 23.7189 2.48331 23.7089 2.2724 23.6728C2.09146 23.6416 1.93977 23.594 1.79312 23.5221C1.64882 23.4519 1.51745 23.3603 1.40158 23.2489C1.2866 23.1387 1.19105 23.0124 1.11717 22.8728C1.04322 22.7334 0.993747 22.5878 0.961216 22.413C0.923611 22.2131 0.913281 21.9989 0.908119 21.8158C0.905172 21.711 0.903941 21.6062 0.903241 21.502L0.90271 21.1944L0.902734 21.1132V3.43374L0.90271 3.35252L0.903217 3.04555C0.903941 2.94073 0.905172 2.83593 0.908119 2.7312C0.913281 2.54793 0.923611 2.33361 0.961527 2.13211C0.993771 1.95886 1.04322 1.81324 1.11756 1.67311C1.19086 1.53461 1.28658 1.40817 1.40216 1.29725C1.51729 1.18671 1.64909 1.09481 1.79431 1.02392C1.93938 0.953011 2.09136 0.905406 2.2723 0.874156C2.48078 0.838203 2.70453 0.828288 2.89617 0.823308C3.0054 0.820458 3.11464 0.819323 3.22305 0.818605L3.62782 0.817841H36.4212" fill="white"/>
<path fill-rule="evenodd" clip-rule="evenodd" d="M18.1631 18.865L18.4018 17.2399L17.87 17.2267H15.3308L17.0955 5.23478C17.101 5.19846 17.1188 5.16475 17.1447 5.14077C17.1708 5.11679 17.204 5.10364 17.2388 5.10364H21.5203C22.9418 5.10364 23.9228 5.42059 24.4348 6.04626C24.6749 6.33978 24.8278 6.64659 24.9019 6.9841C24.9795 7.33832 24.9808 7.76147 24.9051 8.27766L24.8996 8.3152V8.64599L25.1397 8.79179C25.3418 8.90676 25.5025 9.03831 25.6258 9.1889C25.8311 9.43994 25.964 9.75895 26.0201 10.137C26.0781 10.5259 26.059 10.9888 25.964 11.5128C25.8544 12.1154 25.6773 12.6404 25.4381 13.0699C25.2182 13.4656 24.9379 13.7939 24.6051 14.0482C24.2874 14.29 23.91 14.4735 23.4832 14.5909C23.0696 14.7063 22.598 14.7645 22.0809 14.7645H21.7477C21.5095 14.7645 21.278 14.8564 21.0964 15.0213C20.9142 15.1896 20.7937 15.4195 20.7568 15.671L20.7316 15.8173L20.3098 18.6816L20.2907 18.7867C20.2856 18.82 20.2769 18.8366 20.2642 18.8478C20.2528 18.8581 20.2364 18.865 20.2204 18.865H18.1631" fill="#28356A"/>
<path fill-rule="evenodd" clip-rule="evenodd" d="M25.368 8.35406C25.3554 8.44163 25.3407 8.53111 25.3243 8.62305C24.7597 11.7301 22.8279 12.8034 20.3608 12.8034H19.1046C18.8029 12.8034 18.5486 13.0381 18.5017 13.3572L17.6763 18.9678C17.6458 19.1773 17.7964 19.366 17.9936 19.366H20.2216C20.4853 19.366 20.7095 19.1606 20.751 18.8818L20.7729 18.7605L21.1924 15.9074L21.2194 15.7509C21.2604 15.4711 21.4851 15.2656 21.7488 15.2656H22.082C24.2406 15.2656 25.9305 14.3264 26.4244 11.6082C26.6306 10.4728 26.5239 9.52471 25.9779 8.85792C25.8127 8.6569 25.6078 8.49 25.368 8.35406" fill="#298FC2"/>
<path fill-rule="evenodd" clip-rule="evenodd" d="M24.7763 8.10065C24.69 8.07365 24.601 8.04926 24.5097 8.0272C24.4179 8.00568 24.3239 7.98664 24.2271 7.96992C23.8884 7.91127 23.5173 7.88345 23.1198 7.88345H19.7639C19.6812 7.88345 19.6027 7.90346 19.5325 7.93964C19.3777 8.01939 19.2627 8.17642 19.2348 8.36868L18.5209 13.2149L18.5004 13.3561C18.5474 13.0371 18.8017 12.8024 19.1034 12.8024H20.3596C22.8267 12.8024 24.7585 11.7285 25.3231 8.62204C25.34 8.5301 25.3542 8.44062 25.3668 8.35305C25.224 8.2718 25.0693 8.20232 24.9027 8.14312C24.8615 8.12846 24.8191 8.11435 24.7763 8.10065" fill="#22284F"/>
<path fill-rule="evenodd" clip-rule="evenodd" d="M19.2356 8.36875C19.2634 8.1765 19.3784 8.01946 19.5332 7.94026C19.6039 7.90395 19.6819 7.88394 19.7646 7.88394H23.1205C23.518 7.88394 23.8891 7.91189 24.2278 7.97054C24.3246 7.98712 24.4186 8.00631 24.5104 8.02782C24.6017 8.04975 24.6907 8.07427 24.777 8.10113C24.8198 8.11484 24.8623 8.12909 24.9038 8.1432C25.0704 8.2024 25.2252 8.27242 25.368 8.35313C25.5361 7.20496 25.3666 6.42321 24.7875 5.71531C24.1488 4.93589 22.9963 4.60236 21.5215 4.60236H17.2399C16.9386 4.60236 16.6816 4.83709 16.6351 5.15664L14.8518 17.2718C14.8166 17.5115 14.9891 17.7277 15.2146 17.7277H17.8579L19.2356 8.36875" fill="#28356A"/>
</g>
<g clip-path="url(#clip1_0_14)">
<path d="M87.7403 -0.000610352H54.9469C54.8103 -0.000610352 54.6735 -0.000610352 54.5371 0.000154111C54.4219 0.000941738 54.3069 0.00216951 54.1919 0.00518103C53.9412 0.0116905 53.6883 0.025891 53.4406 0.0686082C53.1891 0.112067 52.9549 0.182953 52.7266 0.294565C52.502 0.404161 52.2965 0.547509 52.1183 0.718563C51.9401 0.889617 51.7908 1.08659 51.6766 1.30233C51.5603 1.52155 51.4864 1.74632 51.4414 1.98799C51.3967 2.22574 51.3818 2.46844 51.375 2.70888C51.3719 2.81924 51.3706 2.9296 51.3699 3.03993C51.3691 3.17107 51.3693 3.30212 51.3693 3.43349V21.1129C51.3693 21.2443 51.3691 21.3751 51.3699 21.5065C51.3706 21.6168 51.3719 21.7272 51.375 21.8376C51.3818 22.0778 51.3967 22.3205 51.4414 22.5582C51.4864 22.7999 51.5603 23.0246 51.6766 23.2438C51.7908 23.4596 51.9401 23.6568 52.1183 23.8276C52.2965 23.9989 52.502 24.1423 52.7266 24.2516C52.9549 24.3635 53.1891 24.4344 53.4406 24.4778C53.6883 24.5203 53.9412 24.5347 54.1919 24.5412C54.3069 24.5437 54.4219 24.5452 54.5371 24.5457C54.6735 24.5468 54.8103 24.5468 54.9469 24.5468H87.7403C87.8766 24.5468 88.0134 24.5468 88.1498 24.5457C88.2647 24.5452 88.3797 24.5437 88.4952 24.5412C88.7455 24.5347 88.9983 24.5203 89.2466 24.4778C89.4978 24.4344 89.732 24.3635 89.9604 24.2516C90.1851 24.1423 90.3901 23.9989 90.5686 23.8276C90.7465 23.6568 90.8959 23.4596 91.0103 23.2438C91.1269 23.0246 91.2007 22.7999 91.2455 22.5582C91.2902 22.3205 91.3048 22.0778 91.3115 21.8376C91.3147 21.7272 91.3162 21.6168 91.3168 21.5065C91.3178 21.3751 91.3178 21.2443 91.3178 21.1129V3.43349C91.3178 3.30212 91.3178 3.17107 91.3168 3.03993C91.3162 2.9296 91.3147 2.81924 91.3115 2.70888C91.3048 2.46844 91.2902 2.22574 91.2455 1.98799C91.2007 1.74632 91.1269 1.52155 91.0103 1.30233C90.8959 1.08659 90.7465 0.889617 90.5686 0.718563C90.3901 0.547509 90.1851 0.404161 89.9604 0.294565C89.732 0.182953 89.4978 0.112067 89.2466 0.0686082C88.9983 0.025891 88.7455 0.0116905 88.4952 0.00518103C88.3797 0.00216951 88.2647 0.000941738 88.1498 0.000154111C88.0134 -0.000610352 87.8766 -0.000610352 87.7403 -0.000610352Z" fill="black"/>
<path d="M87.7395 0.817108L88.1429 0.817849C88.2522 0.818591 88.3615 0.819726 88.4714 0.822598C88.6625 0.827556 88.8861 0.837494 89.0945 0.873354C89.2757 0.904674 89.4277 0.952302 89.5735 1.02356C89.7175 1.09377 89.8494 1.18579 89.9645 1.29617C90.0801 1.4073 90.1761 1.5341 90.2503 1.67382C90.3241 1.81269 90.3734 1.95785 90.4058 2.13303C90.4431 2.33091 90.4534 2.54611 90.4586 2.73072C90.4616 2.83492 90.463 2.93912 90.4636 3.04579C90.4646 3.1748 90.4646 3.30374 90.4646 3.43301V21.1124C90.4646 21.2417 90.4646 21.3704 90.4635 21.5022C90.463 21.6063 90.4616 21.7105 90.4586 21.8149C90.4534 21.9992 90.4431 22.2143 90.4054 22.4146C90.3734 22.5873 90.3241 22.7325 90.2499 22.8721C90.176 23.0114 90.0801 23.1381 89.965 23.2485C89.8492 23.3597 89.7177 23.4515 89.5721 23.5223C89.4273 23.5932 89.2756 23.6408 89.0962 23.6718C88.8836 23.7082 88.6506 23.7182 88.4751 23.7228C88.3648 23.7251 88.2549 23.7266 88.1424 23.7271C88.0082 23.7281 87.8736 23.7281 87.7395 23.7281H54.9461C54.9443 23.7281 54.9426 23.7281 54.9407 23.7281C54.8081 23.7281 54.6753 23.7281 54.5403 23.7271C54.4302 23.7266 54.3203 23.7252 54.2142 23.7229C54.0347 23.7182 53.8016 23.7082 53.5907 23.6721C53.4097 23.6408 53.258 23.5932 53.1114 23.5214C52.9671 23.4512 52.8357 23.3595 52.7198 23.2481C52.6049 23.1379 52.5093 23.0117 52.4354 22.8721C52.3615 22.7327 52.312 22.5871 52.2795 22.4122C52.2419 22.2124 52.2315 21.9982 52.2264 21.8151C52.2234 21.7103 52.2222 21.6055 52.2215 21.5013L52.221 21.1936L52.221 21.1124V3.43301L52.221 3.35179L52.2215 3.04482C52.2222 2.94 52.2234 2.8352 52.2264 2.73046C52.2315 2.5472 52.2419 2.33287 52.2798 2.13138C52.312 1.95813 52.3615 1.81251 52.4358 1.67238C52.5091 1.53387 52.6048 1.40744 52.7204 1.29652C52.8355 1.18597 52.9673 1.09408 53.1126 1.02319C53.2576 0.952279 53.4096 0.904674 53.5906 0.873424C53.799 0.837471 54.0228 0.827556 54.2144 0.822575C54.3237 0.819726 54.4329 0.818591 54.5413 0.817873L54.9461 0.817108H87.7395" fill="white"/>
<path d="M62.2761 8.25538C62.6181 7.84474 62.8502 7.29336 62.789 6.72992C62.2883 6.75382 61.6773 7.04699 61.3235 7.45796C61.0059 7.80989 60.7247 8.38435 60.798 8.92417C61.3601 8.97097 61.9217 8.65451 62.2761 8.25538Z" fill="black"/>
<path d="M62.7821 9.02992C61.9658 8.98325 61.2718 9.47458 60.882 9.47458C60.492 9.47458 59.895 9.05344 59.2494 9.06479C58.4091 9.07664 57.6294 9.53268 57.2029 10.258C56.3258 11.709 56.9715 13.8613 57.8244 15.0431C58.2386 15.6277 58.7378 16.2715 59.3955 16.2484C60.017 16.2249 60.2606 15.8621 61.016 15.8621C61.7708 15.8621 61.9903 16.2484 62.6481 16.2367C63.3303 16.2249 63.7568 15.6517 64.171 15.0665C64.6462 14.4 64.8407 13.7565 64.8529 13.7212C64.8407 13.7095 63.5374 13.2296 63.5254 11.7906C63.5131 10.5858 64.5486 10.0127 64.5973 9.97717C64.0125 9.14704 63.0989 9.05344 62.7821 9.02992Z" fill="black"/>
<path d="M69.8883 7.39914C71.6625 7.39914 72.8979 8.57296 72.8979 10.2819C72.8979 11.997 71.6371 13.1769 69.8438 13.1769H67.8795V16.1753H66.4603V7.39914H69.8883V7.39914ZM67.8795 12.0335H69.508C70.7436 12.0335 71.4469 11.395 71.4469 10.288C71.4469 9.18121 70.7436 8.54867 69.5143 8.54867H67.8795V12.0335V12.0335Z" fill="black"/>
<path d="M73.2687 14.3562C73.2687 13.237 74.1622 12.5498 75.7464 12.4647L77.5711 12.3613V11.8687C77.5711 11.1571 77.0705 10.7314 76.2343 10.7314C75.4421 10.7314 74.9478 11.0962 74.8275 11.668H73.5349C73.611 10.5124 74.6374 9.66092 76.2849 9.66092C77.9007 9.66092 78.9334 10.482 78.9334 11.7652V16.1746H77.6218V15.1225H77.5902C77.2038 15.8341 76.3609 16.2841 75.4866 16.2841C74.1812 16.2841 73.2687 15.5056 73.2687 14.3562ZM77.5711 13.7784V13.2736L75.93 13.3709C75.1126 13.4257 74.6501 13.7723 74.6501 14.3197C74.6501 14.8792 75.1316 15.2441 75.8667 15.2441C76.8234 15.2441 77.5711 14.6116 77.5711 13.7784Z" fill="black"/>
<path d="M80.171 18.5282V17.4638C80.2722 17.4881 80.5003 17.4881 80.6145 17.4881C81.2481 17.4881 81.5903 17.2327 81.7993 16.5759C81.7993 16.5637 81.9198 16.1866 81.9198 16.1805L79.512 9.77628H80.9946L82.6802 14.9824H82.7054L84.3911 9.77628H85.8357L83.339 16.5089C82.769 18.0599 82.11 18.5585 80.7286 18.5585C80.6145 18.5585 80.2722 18.5463 80.171 18.5282Z" fill="black"/>
</g>
<g clip-path="url(#clip2_0_14)">
<path d="M139.055 0H106.262C106.125 0 105.988 0 105.852 0.000764462C105.737 0.00155209 105.622 0.00277986 105.507 0.00579138C105.256 0.0123009 105.003 0.0265014 104.756 0.0692186C104.504 0.112677 104.27 0.183564 104.042 0.295175C103.817 0.404771 103.611 0.548119 103.433 0.719174C103.255 0.890228 103.106 1.0872 102.992 1.30294C102.875 1.52216 102.801 1.74693 102.756 1.9886C102.712 2.22635 102.697 2.46905 102.69 2.70949C102.687 2.81985 102.686 2.93021 102.685 3.04054C102.684 3.17168 102.684 3.30273 102.684 3.4341V21.1135C102.684 21.2449 102.684 21.3757 102.685 21.5071C102.686 21.6174 102.687 21.7278 102.69 21.8382C102.697 22.0784 102.712 22.3211 102.756 22.5588C102.801 22.8005 102.875 23.0252 102.992 23.2444C103.106 23.4602 103.255 23.6574 103.433 23.8282C103.611 23.9995 103.817 24.1429 104.042 24.2522C104.27 24.3641 104.504 24.435 104.756 24.4784C105.003 24.5209 105.256 24.5353 105.507 24.5419C105.622 24.5444 105.737 24.5458 105.852 24.5463C105.988 24.5474 106.125 24.5474 106.262 24.5474H139.055C139.192 24.5474 139.328 24.5474 139.465 24.5463C139.58 24.5458 139.695 24.5444 139.81 24.5419C140.06 24.5353 140.313 24.5209 140.562 24.4784C140.813 24.435 141.047 24.3641 141.275 24.2522C141.5 24.1429 141.705 23.9995 141.884 23.8282C142.061 23.6574 142.211 23.4602 142.325 23.2444C142.442 23.0252 142.516 22.8005 142.56 22.5588C142.605 22.3211 142.62 22.0784 142.627 21.8382C142.63 21.7278 142.631 21.6174 142.632 21.5071C142.633 21.3757 142.633 21.2449 142.633 21.1135V3.4341C142.633 3.30273 142.633 3.17168 142.632 3.04054C142.631 2.93021 142.63 2.81985 142.627 2.70949C142.62 2.46905 142.605 2.22635 142.56 1.9886C142.516 1.74693 142.442 1.52216 142.325 1.30294C142.211 1.0872 142.061 0.890228 141.884 0.719174C141.705 0.548119 141.5 0.404771 141.275 0.295175C141.047 0.183564 140.813 0.112677 140.562 0.0692186C140.313 0.0265014 140.06 0.0123009 139.81 0.00579138C139.695 0.00277986 139.58 0.00155209 139.465 0.000764462C139.328 0 139.192 0 139.055 0Z" fill="black"/>
<path d="M139.055 0.817871L139.459 0.818612C139.568 0.819354 139.677 0.820489 139.787 0.823361C139.978 0.828319 140.202 0.838257 140.41 0.874117C140.592 0.905437 140.744 0.953065 140.889 1.02432C141.033 1.09454 141.165 1.18655 141.28 1.29693C141.396 1.40806 141.492 1.53487 141.566 1.67458C141.64 1.81346 141.689 1.95861 141.722 2.13379C141.759 2.33167 141.769 2.54688 141.774 2.73148C141.777 2.83568 141.779 2.93988 141.779 3.04656C141.78 3.17557 141.78 3.3045 141.78 3.43377V21.1132C141.78 21.2425 141.78 21.3712 141.779 21.5029C141.779 21.6071 141.777 21.7113 141.774 21.8157C141.769 22 141.759 22.2151 141.721 22.4153C141.689 22.5881 141.64 22.7333 141.566 22.8728C141.492 23.0122 141.396 23.1389 141.281 23.2493C141.165 23.3605 141.034 23.4522 140.888 23.5231C140.743 23.594 140.591 23.6416 140.412 23.6726C140.199 23.709 139.966 23.719 139.791 23.7235C139.681 23.7259 139.571 23.7273 139.458 23.7279C139.324 23.7289 139.189 23.7288 139.055 23.7288H106.262C106.26 23.7288 106.258 23.7288 106.257 23.7288C106.124 23.7288 105.991 23.7288 105.856 23.7278C105.746 23.7273 105.636 23.7259 105.53 23.7236C105.351 23.719 105.117 23.709 104.906 23.6728C104.726 23.6416 104.574 23.594 104.427 23.5222C104.283 23.4519 104.152 23.3603 104.036 23.2489C103.921 23.1387 103.825 23.0124 103.751 22.8729C103.677 22.7334 103.628 22.5878 103.595 22.413C103.558 22.2132 103.547 21.9989 103.542 21.8158C103.539 21.711 103.538 21.6062 103.537 21.502L103.537 21.1944L103.537 21.1132V3.43377L103.537 3.35255L103.537 3.04558C103.538 2.94076 103.539 2.83596 103.542 2.73123C103.547 2.54797 103.558 2.33364 103.596 2.13214C103.628 1.95889 103.677 1.81327 103.752 1.67314C103.825 1.53464 103.921 1.4082 104.036 1.29728C104.151 1.18674 104.283 1.09484 104.428 1.02395C104.573 0.953042 104.725 0.905437 104.906 0.874186C105.115 0.838234 105.339 0.828319 105.53 0.823338C105.639 0.820489 105.749 0.819354 105.857 0.818636L106.262 0.817871H139.055" fill="white"/>
<g clip-path="url(#clip3_0_14)">
<path d="M125.659 17.6409H119.658V6.90485H125.659V17.6409Z" fill="#FF5F00"/>
<path d="M120.038 12.2737C120.037 11.2398 120.273 10.2193 120.727 9.28935C121.18 8.35941 121.841 7.54444 122.658 6.90615C121.646 6.11461 120.431 5.62239 119.152 5.48574C117.872 5.34909 116.58 5.57352 115.422 6.13338C114.265 6.69325 113.289 7.56596 112.606 8.65178C111.923 9.7376 111.561 10.9927 111.561 12.2737C111.561 13.5546 111.924 14.8095 112.606 15.8952C113.289 16.9808 114.265 17.8534 115.422 18.4133C116.579 18.9731 117.872 19.1976 119.151 19.0611C120.43 18.9246 121.645 18.4326 122.657 17.6413C121.84 17.0028 121.18 16.1878 120.726 15.2579C120.273 14.328 120.037 13.3075 120.038 12.2737V12.2737Z" fill="#EB001B"/>
<path d="M133.755 12.2744C133.755 13.5554 133.393 14.8105 132.71 15.8963C132.028 16.9822 131.052 17.8549 129.894 18.4147C128.737 18.9746 127.445 19.199 126.165 19.0624C124.886 18.9257 123.67 18.4335 122.659 17.642C124.254 16.3919 125.278 14.4523 125.278 12.2744C125.278 10.0964 124.254 8.15686 122.659 6.90679C123.67 6.11525 124.886 5.62303 126.165 5.48638C127.445 5.34973 128.737 5.57416 129.894 6.13402C131.052 6.69389 132.028 7.5666 132.71 8.65242C133.393 9.73824 133.755 10.9934 133.755 12.2744V12.2744Z" fill="#F79E1B"/>
</g>
</g>
<g clip-path="url(#clip4_0_14)">
<path d="M190.371 -0.000549316H157.578C157.441 -0.000549316 157.304 -0.000549316 157.168 0.000215146C157.053 0.00100277 156.938 0.00223055 156.823 0.00524206C156.572 0.0117516 156.319 0.025952 156.072 0.0686693C155.82 0.112128 155.586 0.183014 155.357 0.294626C155.133 0.404222 154.927 0.54757 154.749 0.718624C154.571 0.889678 154.422 1.08665 154.307 1.3024C154.191 1.52161 154.117 1.74639 154.072 1.98805C154.028 2.2258 154.013 2.4685 154.006 2.70894C154.003 2.8193 154.001 2.92966 154.001 3.03999C154 3.17113 154 3.30218 154 3.43355V21.113C154 21.2443 154 21.3752 154.001 21.5066C154.001 21.6169 154.003 21.7273 154.006 21.8376C154.013 22.0778 154.028 22.3205 154.072 22.5582C154.117 22.8 154.191 23.0247 154.307 23.2439C154.422 23.4596 154.571 23.6569 154.749 23.8277C154.927 23.999 155.133 24.1423 155.357 24.2516C155.586 24.3636 155.82 24.4345 156.072 24.4779C156.319 24.5203 156.572 24.5348 156.823 24.5413C156.938 24.5438 157.053 24.5453 157.168 24.5458C157.304 24.5468 157.441 24.5468 157.578 24.5468H190.371C190.507 24.5468 190.644 24.5468 190.781 24.5458C190.896 24.5453 191.011 24.5438 191.126 24.5413C191.376 24.5348 191.629 24.5203 191.877 24.4779C192.129 24.4345 192.363 24.3636 192.591 24.2516C192.816 24.1423 193.021 23.999 193.199 23.8277C193.377 23.6569 193.527 23.4596 193.641 23.2439C193.758 23.0247 193.832 22.8 193.876 22.5582C193.921 22.3205 193.936 22.0778 193.942 21.8376C193.946 21.7273 193.947 21.6169 193.948 21.5066C193.949 21.3752 193.949 21.2443 193.949 21.113V3.43355C193.949 3.30218 193.949 3.17113 193.948 3.03999C193.947 2.92966 193.946 2.8193 193.942 2.70894C193.936 2.4685 193.921 2.2258 193.876 1.98805C193.832 1.74639 193.758 1.52161 193.641 1.3024C193.527 1.08665 193.377 0.889678 193.199 0.718624C193.021 0.54757 192.816 0.404222 192.591 0.294626C192.363 0.183014 192.129 0.112128 191.877 0.0686693C191.629 0.025952 191.376 0.0117516 191.126 0.00524206C191.011 0.00223055 190.896 0.00100277 190.781 0.000215146C190.644 -0.000549316 190.507 -0.000549316 190.371 -0.000549316Z" fill="black"/>
<path d="M190.371 0.817322L190.775 0.818063C190.884 0.818804 190.993 0.819939 191.103 0.822812C191.294 0.827769 191.518 0.837707 191.726 0.873568C191.907 0.904887 192.059 0.952516 192.205 1.02377C192.349 1.09399 192.481 1.186 192.596 1.29638C192.712 1.40751 192.808 1.53432 192.882 1.67403C192.956 1.81291 193.005 1.95806 193.038 2.13324C193.075 2.33112 193.085 2.54633 193.09 2.73093C193.093 2.83513 193.095 2.93933 193.095 3.04601C193.096 3.17502 193.096 3.30396 193.096 3.43322V21.1126C193.096 21.2419 193.096 21.3706 193.095 21.5024C193.095 21.6066 193.093 21.7107 193.09 21.8151C193.085 21.9995 193.075 22.2146 193.037 22.4148C193.005 22.5875 192.956 22.7327 192.882 22.8723C192.808 23.0117 192.712 23.1383 192.597 23.2488C192.481 23.3599 192.349 23.4517 192.204 23.5225C192.059 23.5935 191.907 23.641 191.728 23.672C191.515 23.7084 191.282 23.7184 191.107 23.723C190.996 23.7254 190.887 23.7268 190.774 23.7273C190.64 23.7283 190.505 23.7283 190.371 23.7283H157.578C157.576 23.7283 157.574 23.7283 157.572 23.7283C157.44 23.7283 157.307 23.7283 157.172 23.7273C157.062 23.7268 156.952 23.7254 156.846 23.7231C156.666 23.7184 156.433 23.7084 156.222 23.6723C156.041 23.641 155.89 23.5935 155.743 23.5216C155.599 23.4514 155.467 23.3597 155.352 23.2483C155.237 23.1382 155.141 23.0119 155.067 22.8723C154.993 22.7329 154.944 22.5873 154.911 22.4124C154.874 22.2126 154.863 21.9984 154.858 21.8153C154.855 21.7105 154.854 21.6057 154.853 21.5015L154.853 21.1939L154.853 21.1126V3.43322L154.853 3.352L154.853 3.04503C154.854 2.94021 154.855 2.83541 154.858 2.73068C154.863 2.54742 154.874 2.33309 154.912 2.13159C154.944 1.95834 154.993 1.81272 155.068 1.67259C155.141 1.53409 155.237 1.40765 155.352 1.29673C155.467 1.18619 155.599 1.09429 155.744 1.0234C155.889 0.952493 156.041 0.904887 156.222 0.873637C156.431 0.837684 156.655 0.827769 156.846 0.822789C156.955 0.819939 157.065 0.818804 157.173 0.818086L157.578 0.817322H190.371" fill="white"/>
<g clip-path="url(#clip5_0_14)">
<path d="M175.418 14.3869C174.568 14.3869 174.102 14.2661 173.386 13.9612L173.121 13.8357L172.82 15.648C173.337 15.869 174.27 16.0588 175.234 16.0738C177.499 16.0738 178.979 14.9841 178.997 13.3076C179.015 12.3859 178.431 11.6863 177.198 11.1098C176.45 10.7359 175.984 10.485 175.984 10.1053C175.984 9.76932 176.382 9.41147 177.215 9.41147C177.768 9.39767 178.317 9.50307 178.829 9.72099L179.029 9.81305L179.33 8.06175L179.277 8.07325C178.658 7.84275 178.005 7.72707 177.347 7.73151C175.216 7.73151 173.712 8.82923 173.701 10.4022C173.688 11.5586 174.771 12.2099 175.589 12.5976C176.429 12.9946 176.71 13.2443 176.707 13.601C176.702 14.143 176.036 14.3869 175.418 14.3869V14.3869ZM184.807 7.87994H183.143C182.624 7.87994 182.237 8.02377 182.01 8.55078L178.808 15.961H181.073L181.526 14.7482L184.289 14.7505C184.357 15.0336 184.555 15.961 184.555 15.961H186.551L184.807 7.87994ZM182.146 13.0901L183.005 10.8314C182.994 10.8544 183.182 10.3642 183.291 10.0604L183.439 10.7577L183.937 13.0901H182.146ZM169.289 15.8966H171.446L172.795 7.81205H170.639V7.80975L169.289 15.8966ZM165.382 13.3904L165.158 12.2674V12.2709L164.401 8.55883C164.271 8.04449 163.892 7.8926 163.421 7.87419H159.947L159.919 8.04449C160.701 8.23434 161.406 8.50935 162.036 8.84649C162.134 8.90583 162.206 9.00243 162.236 9.11575L164.1 15.9495H166.38L169.776 7.87994H167.492L165.382 13.3904V13.3904Z" fill="#191E6E"/>
</g>
</g>
<g clip-path="url(#clip6_0_14)">
<path d="M62.0798 36.2754H29.2864C29.1498 36.2754 29.013 36.2754 28.8767 36.2761C28.7614 36.2769 28.6465 36.2781 28.5315 36.2812C28.2807 36.2877 28.0278 36.3019 27.7802 36.3446C27.5286 36.388 27.2945 36.4589 27.0661 36.5705C26.8416 36.6801 26.636 36.8235 26.4579 36.9945C26.2797 37.1656 26.1303 37.3626 26.0162 37.5783C25.8999 37.7975 25.826 38.0223 25.781 38.264C25.7362 38.5017 25.7214 38.7444 25.7146 38.9848C25.7115 39.0952 25.7102 39.2056 25.7094 39.3159C25.7086 39.447 25.7089 39.5781 25.7089 39.7095V57.3889C25.7089 57.5202 25.7086 57.6511 25.7094 57.7825C25.7102 57.8928 25.7115 58.0032 25.7146 58.1135C25.7214 58.3537 25.7362 58.5964 25.781 58.8341C25.826 59.0759 25.8999 59.3006 26.0162 59.5198C26.1303 59.7355 26.2797 59.9328 26.4579 60.1036C26.636 60.2749 26.8416 60.4182 27.0661 60.5276C27.2945 60.6395 27.5286 60.7104 27.7802 60.7538C28.0278 60.7962 28.2807 60.8107 28.5315 60.8172C28.6465 60.8197 28.7614 60.8212 28.8767 60.8217C29.013 60.8227 29.1498 60.8227 29.2864 60.8227H62.0798C62.2162 60.8227 62.353 60.8227 62.4893 60.8217C62.6043 60.8212 62.7193 60.8197 62.8348 60.8172C63.085 60.8107 63.3379 60.7962 63.5861 60.7538C63.8374 60.7104 64.0715 60.6395 64.2999 60.5276C64.5247 60.4182 64.7296 60.2749 64.9082 60.1036C65.0861 59.9328 65.2354 59.7355 65.3499 59.5198C65.4664 59.3006 65.5403 59.0759 65.585 58.8341C65.6298 58.5964 65.6443 58.3537 65.6511 58.1135C65.6542 58.0032 65.6558 57.8928 65.6563 57.7825C65.6574 57.6511 65.6574 57.5203 65.6574 57.3889V39.7095C65.6574 39.5781 65.6574 39.447 65.6563 39.3159C65.6558 39.2056 65.6542 39.0952 65.6511 38.9848C65.6443 38.7444 65.6298 38.5017 65.585 38.264C65.5403 38.0223 65.4664 37.7975 65.3499 37.5783C65.2354 37.3626 65.0861 37.1656 64.9082 36.9945C64.7296 36.8235 64.5247 36.6801 64.2999 36.5705C64.0715 36.4589 63.8374 36.388 63.5861 36.3446C63.3379 36.3019 63.085 36.2877 62.8348 36.2812C62.7193 36.2781 62.6043 36.2769 62.4893 36.2761C62.353 36.2754 62.2162 36.2754 62.0798 36.2754Z" fill="black"/>
<path d="M62.0799 37.0934L62.4833 37.0941C62.5926 37.0949 62.7019 37.096 62.8118 37.0989C63.0029 37.1038 63.2265 37.1138 63.435 37.1496C63.6161 37.1809 63.7681 37.2286 63.9139 37.2998C64.0579 37.37 64.1898 37.4621 64.3049 37.5724C64.4206 37.6836 64.5165 37.8104 64.5907 37.9501C64.6645 38.089 64.7138 38.2341 64.7462 38.4093C64.7835 38.6072 64.7938 38.8224 64.799 39.007C64.802 39.1112 64.8034 39.2154 64.804 39.3221C64.805 39.4511 64.805 39.58 64.805 39.7093V57.3887C64.805 57.518 64.805 57.6467 64.8039 57.7784C64.8034 57.8826 64.802 57.9868 64.799 58.0912C64.7938 58.2755 64.7835 58.4906 64.7458 58.6908C64.7138 58.8636 64.6645 59.0088 64.5903 59.1484C64.5164 59.2877 64.4205 59.4144 64.3054 59.5248C64.1896 59.636 64.0581 59.7277 63.9125 59.7986C63.7677 59.8695 63.616 59.9171 63.4366 59.9481C63.224 59.9845 62.991 59.9945 62.8156 59.999C62.7052 60.0014 62.5953 60.0029 62.4828 60.0034C62.3486 60.0044 62.214 60.0043 62.0799 60.0043H29.2865C29.2847 60.0043 29.283 60.0043 29.2811 60.0043C29.1485 60.0043 29.0157 60.0043 28.8807 60.0033C28.7706 60.0029 28.6608 60.0014 28.5546 59.9991C28.3751 59.9945 28.142 59.9845 27.9311 59.9483C27.7501 59.9171 27.5984 59.8695 27.4518 59.7977C27.3075 59.7274 27.1761 59.6358 27.0602 59.5244C26.9453 59.4142 26.8497 59.2879 26.7758 59.1484C26.7019 59.0089 26.6524 58.8633 26.6199 58.6885C26.5823 58.4887 26.5719 58.2744 26.5668 58.0914C26.5638 57.9865 26.5626 57.8817 26.5619 57.7775L26.5614 57.4699L26.5614 57.3887V39.7093L26.5614 39.6281L26.5619 39.3211C26.5626 39.2163 26.5638 39.1115 26.5668 39.0067C26.5719 38.8235 26.5823 38.6092 26.6202 38.4077C26.6524 38.2344 26.7019 38.0888 26.7762 37.9487C26.8495 37.8101 26.9452 37.6837 27.0608 37.5728C27.1759 37.4622 27.3077 37.3704 27.453 37.2995C27.598 37.2286 27.75 37.1809 27.931 37.1497C28.1394 37.1137 28.3632 37.1038 28.5548 37.0989C28.6641 37.096 28.7733 37.0949 28.8817 37.0941L29.2865 37.0934H62.0799" fill="white"/>
<path d="M48.0488 48.5491C48.0488 52.3621 45.0354 55.4531 41.3182 55.4531C37.6011 55.4531 34.5877 52.3621 34.5877 48.5491C34.5877 44.7362 37.6011 41.6452 41.3182 41.6452C45.0354 41.6452 48.0488 44.7362 48.0488 48.5491Z" fill="#ED0006"/>
<path d="M56.7822 48.5493C56.7822 52.3623 53.7688 55.4533 50.0516 55.4533C46.3345 55.4533 43.3211 52.3623 43.3211 48.5493C43.3211 44.7364 46.3345 41.6454 50.0516 41.6454C53.7688 41.6454 56.7822 44.7364 56.7822 48.5493Z" fill="#0099DF"/>
<path fill-rule="evenodd" clip-rule="evenodd" d="M45.6849 53.8039C47.132 52.5376 48.0496 50.6533 48.0496 48.5493C48.0496 46.4452 47.132 44.561 45.6849 43.2947C44.2378 44.561 43.3202 46.4452 43.3202 48.5493C43.3202 50.6533 44.2378 52.5376 45.6849 53.8039Z" fill="#6C6BBD"/>
</g>
<g clip-path="url(#clip7_0_14)">
<path d="M113.398 36.275H80.6043C80.4677 36.275 80.3309 36.275 80.1946 36.2757C80.0793 36.2765 79.9644 36.2777 79.8494 36.2808C79.5986 36.2873 79.3457 36.3015 79.0981 36.3442C78.8465 36.3876 78.6124 36.4585 78.384 36.5701C78.1595 36.6797 77.9539 36.8231 77.7758 36.9941C77.5976 37.1652 77.4482 37.3622 77.334 37.5779C77.2177 37.7971 77.1438 38.0219 77.0989 38.2636C77.0541 38.5013 77.0392 38.744 77.0325 38.9844C77.0294 39.0948 77.0281 39.2052 77.0273 39.3155C77.0265 39.4466 77.0268 39.5777 77.0268 39.7091V57.3885C77.0268 57.5199 77.0265 57.6507 77.0273 57.7821C77.0281 57.8924 77.0294 58.0028 77.0325 58.1131C77.0392 58.3533 77.0541 58.5961 77.0989 58.8337C77.1438 59.0755 77.2177 59.3002 77.334 59.5194C77.4482 59.7351 77.5976 59.9324 77.7758 60.1032C77.9539 60.2745 78.1595 60.4178 78.384 60.5272C78.6124 60.6391 78.8465 60.71 79.0981 60.7534C79.3457 60.7959 79.5986 60.8103 79.8494 60.8168C79.9644 60.8193 80.0793 60.8208 80.1946 60.8213C80.3309 60.8223 80.4677 60.8223 80.6043 60.8223H113.398C113.534 60.8223 113.671 60.8223 113.807 60.8213C113.922 60.8208 114.037 60.8193 114.153 60.8168C114.403 60.8103 114.656 60.7959 114.904 60.7534C115.155 60.71 115.389 60.6391 115.618 60.5272C115.843 60.4178 116.048 60.2745 116.226 60.1032C116.404 59.9324 116.553 59.7351 116.668 59.5194C116.784 59.3002 116.858 59.0755 116.903 58.8337C116.948 58.5961 116.962 58.3533 116.969 58.1131C116.972 58.0028 116.974 57.8924 116.974 57.7821C116.975 57.6507 116.975 57.5199 116.975 57.3885V39.7091C116.975 39.5777 116.975 39.4466 116.974 39.3155C116.974 39.2052 116.972 39.0948 116.969 38.9844C116.962 38.744 116.948 38.5013 116.903 38.2636C116.858 38.0219 116.784 37.7971 116.668 37.5779C116.553 37.3622 116.404 37.1652 116.226 36.9941C116.048 36.8231 115.843 36.6797 115.618 36.5701C115.389 36.4585 115.155 36.3876 114.904 36.3442C114.656 36.3015 114.403 36.2873 114.153 36.2808C114.037 36.2777 113.922 36.2765 113.807 36.2757C113.671 36.275 113.534 36.275 113.398 36.275Z" fill="#1F72CD"/>
<path d="M113.398 37.0929L113.801 37.0936C113.91 37.0943 114.02 37.0955 114.13 37.0984C114.321 37.1033 114.544 37.1133 114.753 37.1491C114.934 37.1804 115.086 37.2281 115.232 37.2993C115.376 37.3695 115.508 37.4615 115.623 37.5719C115.738 37.6831 115.834 37.8099 115.908 37.9496C115.982 38.0884 116.032 38.2336 116.064 38.4088C116.101 38.6067 116.112 38.8219 116.117 39.0065C116.12 39.1107 116.121 39.2149 116.122 39.3216C116.123 39.4506 116.123 39.5795 116.123 39.7088V57.3882C116.123 57.5174 116.123 57.6462 116.122 57.7779C116.121 57.8821 116.12 57.9863 116.117 58.0907C116.112 58.275 116.101 58.4901 116.064 58.6903C116.032 58.8631 115.982 59.0083 115.908 59.1478C115.834 59.2872 115.738 59.4139 115.623 59.5243C115.507 59.6355 115.376 59.7272 115.23 59.7981C115.086 59.869 114.934 59.9166 114.754 59.9476C114.542 59.9839 114.309 59.994 114.133 59.9985C114.023 60.0009 113.913 60.0023 113.801 60.0029C113.666 60.0038 113.532 60.0038 113.398 60.0038H80.6043C80.6025 60.0038 80.6007 60.0038 80.5989 60.0038C80.4663 60.0038 80.3335 60.0038 80.1985 60.0028C80.0884 60.0023 79.9785 60.0009 79.8723 59.9986C79.6929 59.994 79.4598 59.984 79.2488 59.9478C79.0679 59.9166 78.9162 59.869 78.7696 59.7972C78.6253 59.7269 78.4939 59.6353 78.378 59.5239C78.263 59.4137 78.1675 59.2874 78.0936 59.1479C78.0197 59.0084 77.9702 58.8628 77.9377 58.688C77.9001 58.4882 77.8897 58.2739 77.8846 58.0908C77.8816 57.986 77.8804 57.8812 77.8797 57.777L77.8792 57.4694L77.8792 57.3882V39.7088L77.8792 39.6275L77.8797 39.3206C77.8804 39.2158 77.8816 39.111 77.8846 39.0062C77.8897 38.823 77.9001 38.6086 77.938 38.4071C77.9702 38.2339 78.0197 38.0883 78.094 37.9481C78.1673 37.8096 78.263 37.6832 78.3786 37.5723C78.4937 37.4617 78.6255 37.3698 78.7707 37.2989C78.9158 37.228 79.0678 37.1804 79.2487 37.1492C79.4572 37.1132 79.681 37.1033 79.8726 37.0983C79.9818 37.0955 80.0911 37.0943 80.1995 37.0936L80.6043 37.0929H113.398" fill="#1F72CD"/>
<path fill-rule="evenodd" clip-rule="evenodd" d="M84.9717 44.1413L81.4651 52.4246H85.663L86.1834 51.1039H87.373L87.8934 52.4246H92.5141V51.4166L92.9259 52.4246H95.3161L95.7278 51.3953V52.4246H105.338L106.506 51.1382L107.6 52.4246L112.536 52.4352L109.018 48.3061L112.536 44.1413H107.677L106.539 45.404L105.48 44.1413H95.0254L94.1277 46.2793L93.2089 44.1413H89.0198V45.115L88.5538 44.1413H84.9717ZM85.7845 45.3165H87.8308L90.1567 50.9334V45.3165H92.3983L94.1948 49.3438L95.8505 45.3165H98.0809V51.2603H96.7238L96.7127 46.6028L94.7341 51.2603H93.5201L91.5304 46.6028V51.2603H88.7385L88.2092 49.9278H85.3495L84.8213 51.2591H83.3254L85.7845 45.3165ZM104.84 45.3165H99.3215V51.2568H104.755L106.506 49.2881L108.193 51.2568H109.958L107.393 48.3038L109.958 45.3165H108.27L106.528 47.2626L104.84 45.3165ZM86.7794 46.3231L85.8373 48.6968H87.7204L86.7794 46.3231ZM100.685 47.633V46.548V46.547H104.128L105.631 48.2822L104.062 50.0269H100.685V48.8424H103.695V47.633H100.685Z" fill="white"/>
</g>
<g clip-path="url(#clip8_0_14)">
<path d="M164.713 36.2753H131.92C131.783 36.2753 131.647 36.2753 131.51 36.2761C131.395 36.2769 131.28 36.2781 131.165 36.2811C130.914 36.2876 130.661 36.3018 130.414 36.3445C130.162 36.388 129.928 36.4589 129.7 36.5705C129.475 36.6801 129.27 36.8234 129.092 36.9945C128.913 37.1656 128.764 37.3625 128.65 37.5783C128.534 37.7975 128.46 38.0223 128.415 38.2639C128.37 38.5017 128.355 38.7444 128.348 38.9848C128.345 39.0952 128.344 39.2055 128.343 39.3159C128.342 39.447 128.343 39.5781 128.343 39.7094V57.3888C128.343 57.5202 128.342 57.651 128.343 57.7824C128.344 57.8928 128.345 58.0031 128.348 58.1135C128.355 58.3537 128.37 58.5964 128.415 58.8341C128.46 59.0759 128.534 59.3005 128.65 59.5198C128.764 59.7355 128.913 59.9327 129.092 60.1035C129.27 60.2749 129.475 60.4182 129.7 60.5275C129.928 60.6394 130.162 60.7103 130.414 60.7538C130.661 60.7962 130.914 60.8107 131.165 60.8172C131.28 60.8197 131.395 60.8212 131.51 60.8217C131.647 60.8227 131.783 60.8227 131.92 60.8227H164.713C164.85 60.8227 164.987 60.8227 165.123 60.8217C165.238 60.8212 165.353 60.8197 165.468 60.8172C165.719 60.8107 165.972 60.7962 166.22 60.7538C166.471 60.7103 166.705 60.6394 166.934 60.5275C167.158 60.4182 167.363 60.2749 167.542 60.1035C167.72 59.9327 167.869 59.7355 167.984 59.5198C168.1 59.3005 168.174 59.0759 168.219 58.8341C168.263 58.5964 168.278 58.3537 168.285 58.1135C168.288 58.0031 168.289 57.8928 168.29 57.7824C168.291 57.651 168.291 57.5202 168.291 57.3888V39.7094C168.291 39.5781 168.291 39.447 168.29 39.3159C168.289 39.2055 168.288 39.0952 168.285 38.9848C168.278 38.7444 168.263 38.5017 168.219 38.2639C168.174 38.0223 168.1 37.7975 167.984 37.5783C167.869 37.3625 167.72 37.1656 167.542 36.9945C167.363 36.8234 167.158 36.6801 166.934 36.5705C166.705 36.4589 166.471 36.388 166.22 36.3445C165.972 36.3018 165.719 36.2876 165.468 36.2811C165.353 36.2781 165.238 36.2769 165.123 36.2761C164.987 36.2753 164.85 36.2753 164.713 36.2753Z" fill="black"/>
<path d="M164.713 37.0934L165.116 37.0941C165.225 37.0948 165.335 37.096 165.445 37.0988C165.636 37.1038 165.859 37.1137 166.068 37.1496C166.249 37.1809 166.401 37.2285 166.547 37.2998C166.691 37.37 166.823 37.462 166.938 37.5724C167.053 37.6835 167.149 37.8103 167.223 37.9501C167.297 38.0889 167.347 38.2341 167.379 38.4093C167.416 38.6072 167.427 38.8224 167.432 39.007C167.435 39.1112 167.436 39.2154 167.437 39.322C167.438 39.451 167.438 39.58 167.438 39.7093V57.3887C167.438 57.5179 167.438 57.6466 167.437 57.7784C167.436 57.8826 167.435 57.9868 167.432 58.0912C167.427 58.2755 167.416 58.4906 167.379 58.6908C167.347 58.8636 167.297 59.0088 167.223 59.1483C167.149 59.2877 167.053 59.4144 166.938 59.5248C166.822 59.636 166.691 59.7277 166.545 59.7986C166.401 59.8695 166.249 59.9171 166.069 59.9481C165.857 59.9844 165.624 59.9944 165.448 59.999C165.338 60.0014 165.228 60.0028 165.116 60.0033C164.981 60.0043 164.847 60.0043 164.713 60.0043H131.919C131.917 60.0043 131.916 60.0043 131.914 60.0043C131.781 60.0043 131.648 60.0043 131.513 60.0033C131.403 60.0028 131.294 60.0014 131.187 59.9991C131.008 59.9944 130.775 59.9845 130.564 59.9483C130.383 59.9171 130.231 59.8695 130.085 59.7977C129.94 59.7274 129.809 59.6358 129.693 59.5244C129.578 59.4142 129.483 59.2879 129.409 59.1483C129.335 59.0089 129.285 58.8633 129.253 58.6885C129.215 58.4886 129.205 58.2744 129.2 58.0913C129.197 57.9865 129.195 57.8817 129.195 57.7775L129.194 57.4699L129.194 57.3887V39.7093L129.194 39.628L129.195 39.3211C129.195 39.2162 129.197 39.1114 129.2 39.0067C129.205 38.8234 129.215 38.6091 129.253 38.4076C129.285 38.2344 129.335 38.0888 129.409 37.9486C129.482 37.8101 129.578 37.6837 129.694 37.5728C129.809 37.4622 129.941 37.3703 130.086 37.2994C130.231 37.2285 130.383 37.1809 130.564 37.1497C130.772 37.1137 130.996 37.1038 131.188 37.0988C131.297 37.096 131.406 37.0948 131.515 37.0941L131.919 37.0934H164.713" fill="white"/>
<path d="M148.17 60.0561L167.404 54.6863V58.5901C167.404 59.3997 166.748 60.0561 165.938 60.0561H148.17Z" fill="#FD6020"/>
<path fill-rule="evenodd" clip-rule="evenodd" d="M161.598 45.6C162.681 45.6 163.276 46.1193 163.276 47.1002C163.33 47.8503 162.843 48.485 162.194 48.6004L163.655 50.7353H162.518L161.273 48.6581H161.165V50.7353H160.245V45.6H161.598ZM161.166 47.9651H161.437C162.032 47.9651 162.303 47.6766 162.303 47.1573C162.303 46.6957 162.032 46.4072 161.437 46.4072H161.166V47.9651ZM157.053 50.7353H159.651V49.8698H157.973V48.485H159.597V47.6195H157.973V46.4655H159.651V45.6H157.053V50.7353V50.7353ZM154.344 49.062L153.099 45.6H152.125L154.128 50.8507H154.615L156.618 45.6H155.643L154.344 49.062V49.062ZM143.356 48.1967C143.356 49.6392 144.439 50.8509 145.792 50.8509C146.225 50.8509 146.604 50.7355 146.983 50.5624V49.4084C146.712 49.7546 146.333 49.9854 145.9 49.9854C145.034 49.9854 144.33 49.293 144.33 48.3698V48.2544C144.276 47.3312 144.98 46.5234 145.846 46.4657C146.279 46.4657 146.712 46.6965 146.983 47.0427V45.8887C146.658 45.6579 146.225 45.6002 145.846 45.6002C144.439 45.4848 143.356 46.6965 143.356 48.1967V48.1967ZM141.677 47.5618C141.136 47.331 140.974 47.2156 140.974 46.9271C141.028 46.5809 141.298 46.2924 141.623 46.3501C141.894 46.3501 142.164 46.5232 142.381 46.754L142.868 46.0616C142.489 45.7154 142.002 45.4846 141.515 45.4846C140.757 45.4269 140.107 46.0616 140.053 46.8694V46.9271C140.053 47.6195 140.324 48.0234 141.19 48.3119C141.407 48.3696 141.623 48.485 141.84 48.6004C142.002 48.7158 142.11 48.8889 142.11 49.1197C142.11 49.5236 141.785 49.8698 141.461 49.8698H141.407C140.974 49.8698 140.595 49.5813 140.432 49.1774L139.837 49.8121C140.162 50.4468 140.811 50.793 141.461 50.793C142.327 50.8507 143.03 50.1583 143.085 49.2351V49.062C143.03 48.3696 142.76 48.0234 141.677 47.5618V47.5618ZM138.538 50.7353H139.458V45.6H138.538V50.7353V50.7353ZM134.262 45.6H135.616H135.886C137.185 45.6577 138.214 46.8117 138.16 48.1965C138.16 48.9466 137.835 49.639 137.294 50.1583C136.807 50.5622 136.211 50.793 135.616 50.7353H134.262V45.6ZM135.454 49.8689C135.887 49.9266 136.374 49.7535 136.699 49.465C137.024 49.1188 137.186 48.6572 137.186 48.1379C137.186 47.6763 137.024 47.2147 136.699 46.8685C136.374 46.58 135.887 46.4069 135.454 46.4646H135.183V49.8689H135.454Z" fill="black"/>
<path fill-rule="evenodd" clip-rule="evenodd" d="M149.744 45.481C148.39 45.481 147.254 46.635 147.254 48.1352C147.254 49.5777 148.336 50.7893 149.744 50.847C151.151 50.9047 152.234 49.6931 152.288 48.1929C152.234 46.6927 151.151 45.481 149.744 45.481V45.481Z" fill="#FD6020"/>
</g>
<defs>
<clipPath id="clip0_0_14">
<rect width="39.9485" height="24.5474" fill="white" transform="translate(0.0503235)"/>
</clipPath>
<clipPath id="clip1_0_14">
<rect width="39.9485" height="24.5474" fill="white" transform="translate(51.3673)"/>
</clipPath>
<clipPath id="clip2_0_14">
<rect width="39.9485" height="24.5474" fill="white" transform="translate(102.684)"/>
</clipPath>
<clipPath id="clip3_0_14">
<rect width="22.1936" height="13.8079" fill="white" transform="translate(111.562 5.36966)"/>
</clipPath>
<clipPath id="clip4_0_14">
<rect width="39.9485" height="24.5474" fill="white" transform="translate(154.001)"/>
</clipPath>
<clipPath id="clip5_0_14">
<rect width="26.6323" height="12.2737" fill="white" transform="translate(159.919 6.13712)"/>
</clipPath>
<clipPath id="clip6_0_14">
<rect width="39.9485" height="24.5474" fill="white" transform="translate(25.7088 36.2754)"/>
</clipPath>
<clipPath id="clip7_0_14">
<rect width="39.9485" height="24.5474" fill="white" transform="translate(77.0257 36.2754)"/>
</clipPath>
<clipPath id="clip8_0_14">
<rect width="39.9485" height="24.5474" fill="white" transform="translate(128.343 36.2754)"/>
</clipPath>
</defs>
</svg>
