<svg width="64" height="16" viewBox="0 0 64 16" fill="none" xmlns="http://www.w3.org/2000/svg">
<path fill-rule="evenodd" clip-rule="evenodd" d="M42.6767 4.59178C42.4239 6.17006 41.156 6.17006 39.9294 6.17006H39.2317L39.7213 3.22326C39.7505 3.04525 39.9121 2.9143 40.1017 2.9143H40.422C41.2568 2.9143 42.0452 2.91429 42.4519 3.36612C42.6952 3.63654 42.7685 4.03791 42.6767 4.59178ZM42.143 0.47375H37.5178C37.2012 0.47375 36.9322 0.692576 36.8827 0.989637L35.0126 12.2643C34.9756 12.4866 35.1569 12.6878 35.3931 12.6878H37.7665C37.9877 12.6878 38.1762 12.5348 38.2108 12.3273L38.7415 9.13046C38.7904 8.8334 39.0599 8.61457 39.376 8.61457H40.8394C43.8861 8.61457 45.6447 7.21317 46.1038 4.43475C46.3108 3.22043 46.1122 2.26575 45.5141 1.59737C44.8563 0.862651 43.6905 0.47375 42.143 0.47375Z" fill="#0079C1"/>
<path fill-rule="evenodd" clip-rule="evenodd" d="M9.68746 4.59178C9.43461 6.17006 8.1668 6.17006 6.94014 6.17006H6.24243L6.73202 3.22326C6.76124 3.04525 6.92285 2.9143 7.11248 2.9143H7.43272C8.26758 2.9143 9.05594 2.91429 9.46264 3.36612C9.70594 3.63654 9.77929 4.03791 9.68746 4.59178ZM9.15374 0.47375H4.52857C4.21192 0.47375 3.94297 0.692576 3.89347 0.989637L2.02337 12.2643C1.9864 12.4866 2.16709 12.6878 2.40383 12.6878H4.61265C4.92871 12.6878 5.19765 12.469 5.24715 12.1725L5.75225 9.13046C5.80115 8.8334 6.07069 8.61457 6.38675 8.61457H7.85015C10.8968 8.61457 12.6554 7.21317 13.1146 4.43475C13.3215 3.22043 13.1229 2.26575 12.5248 1.59737C11.8671 0.862651 10.7012 0.47375 9.15374 0.47375Z" fill="#00457C"/>
<path fill-rule="evenodd" clip-rule="evenodd" d="M19.8914 8.6394C19.6773 9.84238 18.6731 10.6502 17.3916 10.6502C16.7493 10.6502 16.2347 10.4535 15.9043 10.0816C15.5769 9.71313 15.4535 9.1876 15.5573 8.60312C15.7564 7.41034 16.7774 6.57698 18.0392 6.57698C18.6683 6.57698 19.1788 6.7754 19.5157 7.15069C19.855 7.52882 19.9886 8.05718 19.8914 8.6394ZM22.978 4.54121H20.7633C20.5736 4.54121 20.412 4.67216 20.3822 4.85074L20.285 5.43919L20.1305 5.22603C19.6505 4.56445 18.5813 4.34279 17.5138 4.34279C15.0671 4.34279 12.9769 6.10588 12.5702 8.57817C12.3585 9.81177 12.6591 10.9904 13.3949 11.813C14.0706 12.5686 15.0349 12.8833 16.184 12.8833C18.1567 12.8833 19.2504 11.6792 19.2504 11.6792L19.1514 12.2642C19.1144 12.4864 19.2951 12.6877 19.5324 12.6877H21.5266C21.8432 12.6877 22.1122 12.4694 22.1617 12.1724L23.3591 4.96469C23.3961 4.74246 23.2148 4.54121 22.978 4.54121Z" fill="#00457C"/>
<path fill-rule="evenodd" clip-rule="evenodd" d="M52.8807 8.6394C52.6666 9.84238 51.6624 10.6502 50.3808 10.6502C49.7386 10.6502 49.224 10.4535 48.8936 10.0816C48.5656 9.71313 48.4428 9.1876 48.5465 8.60312C48.7457 7.41034 49.7666 6.57698 51.0285 6.57698C51.6576 6.57698 52.1681 6.7754 52.505 7.15069C52.8443 7.52882 52.9779 8.05718 52.8807 8.6394ZM55.9673 4.54121H53.7525C53.5629 4.54121 53.4013 4.67216 53.3715 4.85074L53.2743 5.43919L53.1192 5.22603C52.6398 4.56445 51.5705 4.34279 50.5031 4.34279C48.0563 4.34279 45.9662 6.10588 45.5595 8.57817C45.3478 9.81177 45.6483 10.9904 46.3842 11.813C47.0599 12.5686 48.0241 12.8833 49.1733 12.8833C51.1459 12.8833 52.2396 11.6792 52.2396 11.6792L52.1406 12.2642C52.1037 12.4864 52.2843 12.6877 52.5217 12.6877H54.5158C54.8325 12.6877 55.1014 12.4694 55.1509 12.1724L56.3484 4.96469C56.3853 4.74246 56.204 4.54121 55.9673 4.54121Z" fill="#0079C1"/>
<path fill-rule="evenodd" clip-rule="evenodd" d="M34.7737 4.54127H32.5476C32.3347 4.54127 32.1355 4.64161 32.0163 4.80942L28.9451 9.10886L27.6439 4.97722C27.5622 4.71871 27.3118 4.54127 27.0279 4.54127H24.84C24.5758 4.54127 24.3897 4.78844 24.475 5.02597L26.926 11.8663L24.6205 14.9588C24.4398 15.2014 24.6223 15.537 24.9354 15.537H27.1591C27.3696 15.537 27.567 15.439 27.6875 15.2746L35.0904 5.11668C35.2675 4.87347 35.085 4.54127 34.7737 4.54127Z" fill="#00457C"/>
<path fill-rule="evenodd" clip-rule="evenodd" d="M58.5778 0.783565L56.6796 12.2646C56.6426 12.4868 56.8233 12.6881 57.0601 12.6881H58.9695C59.2856 12.6881 59.5551 12.4693 59.604 12.1722L61.4759 0.897512C61.5129 0.675283 61.3322 0.474032 61.0949 0.474032H58.9588C58.7686 0.474032 58.607 0.604987 58.5778 0.783565Z" fill="#0079C1"/>
</svg>
