<svg width="24" height="24" viewBox="0 0 24 24" fill="none" xmlns="http://www.w3.org/2000/svg">
<circle cx="12" cy="12" r="12" fill="#EAF3F5"/>
<path fill-rule="evenodd" clip-rule="evenodd" d="M8.78464 15.346L8.54652 13.4174C7.91606 12.9691 7.43036 12.6001 6.84662 12.1752C6.57102 10.1437 7.08009 9.04156 7.82727 7.99549C8.75662 6.81397 10.251 5.93135 12.0396 5.93135C13.8283 5.94998 15.3273 6.85131 16.21 8.03282C17.0365 9.15364 17.4802 10.564 17.1579 12.2312L15.5468 13.4174L15.3085 15.346H12.7542C12.5954 15.4722 12.3806 15.5889 12.0396 15.5983C11.7034 15.5889 11.4932 15.4722 11.3204 15.346H8.78464Z" fill="#CC2229"/>
<path fill-rule="evenodd" clip-rule="evenodd" d="M12.0397 12.6702C11.9043 10.8722 11.867 8.65389 11.7549 6.87467C11.5634 6.82795 11.2926 6.84199 11.0684 6.87933C10.8443 6.94941 10.6808 7.0101 10.4893 7.11752C10.8396 8.82673 11.2459 11.0029 11.5915 12.6982C11.1199 11.0497 10.4893 8.98553 10.0224 7.34167C9.79826 7.38839 9.57877 7.51444 9.42005 7.64522C9.25194 7.77599 9.15383 7.8741 8.9997 8.10756C9.6768 9.55529 10.4893 11.3999 11.1712 12.8383C10.3819 11.5306 9.42456 9.80745 8.63065 8.50921C8.47658 8.64465 8.35978 8.74275 8.20564 9.00423C8.07486 9.21441 8.00951 9.46192 7.98149 9.70011C8.85014 10.7602 9.88683 12.0305 10.7601 13.0858C9.84957 12.2078 8.72868 11.0777 7.82742 10.1997C7.73871 10.3771 7.68267 10.5266 7.65466 10.8208C7.62198 11.1056 7.67802 11.4465 7.73871 11.652L9.4993 12.9597L9.68611 14.412L11.6242 14.426C11.7643 14.5895 11.8109 14.6735 12.0398 14.6875C12.2592 14.6735 12.3854 14.5381 12.4415 14.426H14.3748L14.5708 12.969L16.3175 11.6707C16.3828 11.4559 16.4248 11.1243 16.4016 10.8394C16.3735 10.5312 16.3175 10.3771 16.2428 10.2136C15.3368 11.0869 14.2113 12.2171 13.31 13.095C14.1879 12.0489 15.2154 10.774 16.0933 9.70462C16.0466 9.4665 15.9906 9.22357 15.8504 9.01347C15.687 8.75191 15.5935 8.65389 15.4441 8.51379C14.6456 9.80738 13.6742 11.5447 12.885 12.8428C13.5856 11.3999 14.3794 9.55521 15.066 8.12626C14.9166 7.89738 14.8091 7.78065 14.6597 7.65926C14.4822 7.52383 14.2628 7.39778 14.0479 7.3464C13.5576 8.98553 12.9552 11.0684 12.4788 12.7028C12.8103 11.0076 13.226 8.85009 13.5576 7.14561C13.3895 7.02415 13.2261 6.96346 13.0064 6.8981C12.7543 6.85138 12.5068 6.84207 12.3106 6.87474C12.1799 8.66793 12.1751 10.8815 12.0397 12.6702Z" fill="#F6D330"/>
<path fill-rule="evenodd" clip-rule="evenodd" d="M6.68787 17.4009H7.59385C7.57988 17.6017 7.67798 17.6484 7.7247 17.6811C7.77601 17.6997 8.15437 17.7184 8.34111 17.6857C8.41585 17.6717 8.48586 17.6437 8.48586 17.4148C8.48586 17.3168 8.4625 17.2094 8.35043 17.186C7.95343 17.1533 7.56583 17.1953 7.16891 17.1579C6.77192 17.0693 6.7113 16.9665 6.68787 16.6536C6.71588 16.2193 6.87002 16.0932 7.31366 16.0792C7.7759 16.0652 8.23846 16.0652 8.70069 16.0792C9.17235 16.0792 9.3171 16.2614 9.3171 16.6583H8.48586C8.48586 16.4621 8.44853 16.3875 8.35043 16.3781C8.1483 16.3641 7.94545 16.3641 7.74333 16.3781C7.66859 16.3781 7.57056 16.4155 7.57056 16.5929C7.57056 16.7609 7.61255 16.803 7.7247 16.8171C8.06558 16.831 8.41119 16.8358 8.74742 16.859C9.30779 16.8917 9.32649 17.1392 9.34512 17.4007C9.35444 17.7744 9.219 17.905 9.12097 17.9659C9.0276 18.0079 8.57457 18.0593 8.48586 18.0593H7.58927C7.3884 18.0593 7.13624 18.036 6.91675 17.9705C6.71123 17.9146 6.68787 17.6391 6.68787 17.4009ZM15.2014 18.0686H15.9952V16.0886H15.2014V18.0686ZM16.5276 18.0686H17.3122V16.0886H16.5276V18.0686ZM14.739 17.0319C14.7246 16.97 14.7058 16.9091 14.6828 16.8498C14.5474 16.6303 14.0805 16.6303 13.6275 16.6209C13.2866 16.6209 12.7777 16.6303 12.6282 16.775C12.5674 16.8404 12.5347 16.9338 12.5161 17.0319C12.4927 17.1487 12.4973 17.27 12.4973 17.3261C12.4973 17.4288 12.5067 17.8257 12.6982 17.9285C12.8756 18.0453 13.4126 18.0593 13.6181 18.0593C13.8376 18.0593 14.4447 18.036 14.5335 17.9331C14.6922 17.8771 14.7296 17.681 14.7622 17.527H13.9824C13.9824 17.681 13.8609 17.7745 13.6181 17.7603C13.3986 17.7744 13.2725 17.723 13.2725 17.4476L14.7622 17.4522C14.7622 17.3168 14.767 17.172 14.739 17.0319ZM13.9824 17.1673H13.2725C13.2725 17.1113 13.2819 17.0645 13.2959 17.0319C13.3471 16.9058 13.478 16.9012 13.618 16.8918C13.8328 16.8918 13.9263 16.9432 13.9637 17.0319C13.9824 17.0693 13.987 17.1159 13.9824 17.1673ZM9.81212 18.0686H10.5873V17.228C10.606 17.1114 10.6341 17.0179 10.9189 17.0179C11.1897 17.0133 11.2644 17.0879 11.2644 17.228V18.0686H12.0396V17.228C12.0396 16.9525 12.0351 16.8031 11.8576 16.7238C11.6988 16.621 11.4699 16.635 11.2551 16.635C11.031 16.635 10.7788 16.6631 10.5873 16.7565V16.0887H9.81212V18.0686Z" fill="#CC2229"/>
</svg>
